<svg xmlns="http://www.w3.org/2000/svg" viewBox="0 0 144.47 105.84"><defs><style>.cls-1{fill:#9c602a;}</style></defs><g id="Capa_2" data-name="Capa 2"><g id="Capa_1-2" data-name="Capa 1"><path class="cls-1" d="M144.46,105.84l-92.33-.35V82.74l-41.95-.56,16.7-22H12.68l22.4-23.35h-15L51.39,0,72,23.91l20-22.2L121.6,35.38H106.66l22.4,22.24H114.49l20.06,26.22L53.13,82.75v21.74l91.34.35ZM53.57,81.76l78.94,1.06-20-26.2h14.18l-22.4-22.24h15.15L91.93,3.21,72.61,24.72l-.2-.18-8,9.84H80.65l-24,22.24H71Zm-41.4-.55,40.2.53L69.1,57.62H54.16L78.1,35.38H62.27l8.9-10.9L51.39,1.54,22.28,35.86H37.42L15,59.21H28.9Z"/><rect class="cls-1" y="104.55" width="52.63" height="1" transform="translate(-0.21 0.05) rotate(-0.11)"/><rect class="cls-1" x="91.83" y="82.65" width="1" height="22.33"/></g></g></svg>