<svg xmlns="http://www.w3.org/2000/svg" xmlns:xlink="http://www.w3.org/1999/xlink" viewBox="0 0 260.21 252.56"><defs><style>.cls-1{fill:url(#White_Black);}.cls-2{fill:url(#White_Black-2);}.cls-3{fill:url(#White_Black-3);}.cls-4{fill:url(#White_Black-4);}.cls-5{isolation:isolate;}.cls-6{mask:url(#mask);}.cls-7{mask:url(#mask-2);}.cls-8{mask:url(#mask-3);}.cls-9{mask:url(#mask-4);}.cls-10{mix-blend-mode:multiply;}.cls-11{fill:#fff;}</style><linearGradient id="White_Black" x1="-3191.52" y1="-702" x2="-3342.26" y2="-803.27" gradientTransform="translate(392.11 -532.8) rotate(-180)" gradientUnits="userSpaceOnUse"><stop offset="0" stop-color="#fff"/><stop offset="1" stop-color="#231f20"/></linearGradient><linearGradient id="White_Black-2" x1="5407.01" y1="585.13" x2="4921.18" y2="258.74" gradientTransform="matrix(0, 1, -1, 0, -2293.01, -4365.47)" xlink:href="#White_Black"/><linearGradient id="White_Black-3" x1="4783.08" y1="2018.87" x2="4297.25" y2="1692.48" gradientTransform="translate(-7015.55 -1672.18)" xlink:href="#White_Black"/><linearGradient id="White_Black-4" x1="-25208.57" y1="-5228.4" x2="-25432.3" y2="-5378.71" gradientTransform="translate(788.29 -3304.71) rotate(-180)" xlink:href="#White_Black"/><mask id="mask" x="3587.64" y="171.65" width="168.2" height="109.01" maskUnits="userSpaceOnUse"><g transform="translate(-44.07 -31.96)"><rect class="cls-1" x="3636.68" y="213.07" width="158.25" height="90.1" transform="translate(-3.34 462.5) rotate(-7.12)"/></g></mask><mask id="mask-2" x="-2811.83" y="312.53" width="351.34" height="542.08" maskUnits="userSpaceOnUse"><g transform="translate(-44.07 -31.96)"><rect class="cls-2" x="-2737.28" y="360.52" width="290.37" height="510.03" transform="translate(-96.27 -316.5) rotate(-7.12)"/></g></mask><mask id="mask-3" x="-2973.64" y="-147" width="542.08" height="351.34" maskUnits="userSpaceOnUse"><g transform="translate(-44.07 -31.96)"><rect class="cls-3" x="-2913.55" y="-84.56" width="510.03" height="290.37" transform="translate(-28.01 -329.01) rotate(-7.12)"/></g></mask><mask id="mask-4" x="8329.25" y="1943.64" width="17944.48" height="161.8" maskUnits="userSpaceOnUse"><g transform="translate(-44.07 -31.96)"><rect class="cls-4" x="26075.54" y="1989.64" width="234.87" height="133.72" transform="translate(-52.93 3262.15) rotate(-7.12)"/></g></mask></defs><g class="cls-5"><g id="Layer_3" data-name="Layer 3"><g class="cls-10"><path class="cls-11" d="M287.08,236.78,91.05,40A27.52,27.52,0,0,0,52.13,78.94l196,196.76a27.52,27.52,0,1,0,38.92-38.92Z" transform="translate(-44.07 -31.96)"/><path class="cls-11" d="M219.46,156.46,296.22,79.7A27.52,27.52,0,0,0,257.3,40.78l-76.69,76.69Z" transform="translate(-44.07 -31.96)"/><path class="cls-11" d="M124.78,165.09,52.32,237.55a27.52,27.52,0,0,0,38.92,38.91l72.39-72.38Z" transform="translate(-44.07 -31.96)"/></g></g></g></svg>