<svg id="Capa_1" data-name="Capa 1" xmlns="http://www.w3.org/2000/svg" viewBox="0 0 266 265"><defs><style>.cls-1{fill:#9c602a;}</style></defs><path class="cls-1" d="M13.2,7C8.5,9.9,6,14.5,6,20.7a28.52,28.52,0,0,0,1.1,8c.5,1.5,23.8,25.6,51.7,53.5L109.5,133,58.8,183.7c-27.9,28-51.2,52.1-51.7,53.6A27.76,27.76,0,0,0,6,245.2c0,9.4,6.4,15.8,15.8,15.8a27.76,27.76,0,0,0,7.9-1.1c1.5-.5,25.6-23.8,53.6-51.7L134,157.5l50.8,50.7c27.9,27.9,52,51.2,53.5,51.7a27.76,27.76,0,0,0,7.9,1.1c9.4,0,15.8-6.4,15.8-15.8a27.76,27.76,0,0,0-1.1-7.9c-.5-1.5-23.8-25.6-51.7-53.6L158.5,133l50.7-50.8c27.9-27.9,51.2-52,51.7-53.5,1.6-4.1,1.3-12.3-.4-15.7-2.5-4.8-8.1-8-14.2-8a28.52,28.52,0,0,0-8,1.1c-1.5.5-25.6,23.8-53.5,51.7L134,108.5,83.3,57.8C55.3,29.9,31.2,6.6,29.7,6.1,25,4.3,16.9,4.8,13.2,7Z"/></svg>