<svg xmlns="http://www.w3.org/2000/svg" viewBox="0 0 116.7 103.75"><defs><style>.cls-1{fill:#9c602a;}</style></defs><g id="Capa_2" data-name="Capa 2"><g id="Capa_1-2" data-name="Capa 1"><path class="cls-1" d="M37.81,82.51C17,82.51,0,65.06,0,43.62S17,4.72,37.81,4.72s37.81,17.45,37.81,38.9a40.2,40.2,0,0,1-.69,7.43l-1-.19a39.8,39.8,0,0,0,.67-7.24c0-20.9-16.51-37.9-36.81-37.9S1,22.72,1,43.62,17.51,81.51,37.81,81.51a35.73,35.73,0,0,0,10.88-1.68l.3,1A37.07,37.07,0,0,1,37.81,82.51Z"/><path class="cls-1" d="M98.59,37.24c-10,0-18.1-8.35-18.1-18.62S88.61,0,98.59,0A18.39,18.39,0,0,1,116.7,18.62,18.39,18.39,0,0,1,98.59,37.24ZM98.59,1a17.38,17.38,0,0,0-17.1,17.62c0,9.71,7.67,17.62,17.1,17.62A17.4,17.4,0,0,0,115.7,18.62,17.39,17.39,0,0,0,98.59,1Z"/><path class="cls-1" d="M57.77,103.75a49.66,49.66,0,0,1-9.88-1l-.32-.06-.07-.32C47,100,42.65,78.76,57.62,61.85a45.89,45.89,0,0,1,44.11-14.14l.31.06.07.31c1.16,5,4.08,22.41-7.4,37.78C86.22,97.24,72.39,103.75,57.77,103.75Zm-9.37-1.91c17.58,3.45,35.41-3,45.51-16.58,11-14.72,8.47-31.39,7.3-36.64A44.88,44.88,0,0,0,58.37,62.51C44.25,78.46,47.67,98.37,48.4,101.84Z"/><rect class="cls-1" x="57.29" y="75.08" width="35.97" height="1" transform="translate(-31.38 73.89) rotate(-44.21)"/><rect class="cls-1" x="65.6" y="77.85" width="1" height="11.65" transform="translate(-39.86 71.74) rotate(-45.26)"/><rect class="cls-1" x="74.4" y="69.46" width="1" height="11.48" transform="translate(-31.24 74.99) rotate(-45)"/><rect class="cls-1" x="83.01" y="61.44" width="1" height="11.57" transform="translate(-22.94 79.9) rotate(-45.63)"/><rect class="cls-1" x="37.31" y="6.89" width="1" height="74.08"/><rect class="cls-1" x="0.5" y="43.12" width="74.62" height="1"/><path class="cls-1" d="M11.69,71l-.76-.65A39.23,39.23,0,0,0,20.2,43.64,39.23,39.23,0,0,0,9.5,18.53l.72-.69a40.26,40.26,0,0,1,11,25.75A40.26,40.26,0,0,1,11.69,71Z"/><path class="cls-1" d="M57.54,62.39c-2.15-4.7-6.65-17.12-2.09-30.9a40.2,40.2,0,0,1,8.87-14.84l.73.68A39.35,39.35,0,0,0,56.4,31.8C52,45.25,56.35,57.38,58.45,62Z"/><path class="cls-1" d="M88.14,33.28l-.69-.72a18.84,18.84,0,0,0,5.69-12.35c.43-8.43-5.26-13.88-6.41-14.89l.66-.75c1.21,1.06,7.2,6.8,6.75,15.69A19.85,19.85,0,0,1,88.14,33.28Z"/><path class="cls-1" d="M109,33.25a21.82,21.82,0,0,1-5.22-15.37,21.82,21.82,0,0,1,5.86-13.39l.73.68A20.83,20.83,0,0,0,104.78,18a20.74,20.74,0,0,0,5,14.64Z"/></g></g></svg>