<svg id="Capa_1" data-name="Capa 1" xmlns="http://www.w3.org/2000/svg" viewBox="0 0 512 512"><defs><style>.cls-1{fill:#fff;}</style></defs><path class="cls-1" d="M41.3,65.5c-8,2.2-12,4.1-18.9,9A53,53,0,0,0,6.2,93C-.3,104.8,0,96,0,256.1,0,413.9-.3,405.8,5.5,417.6a57,57,0,0,0,31.3,27.6l6.7,2.3h426l6.9-2.8c17.2-6.8,29.6-20.6,34.1-37.8,2.2-8.1,2.2-293.7,0-301.8a57.23,57.23,0,0,0-35-38.3l-6-2.3L258,64.3C78.8,64.1,45.7,64.3,41.3,65.5ZM467.5,97.2c7.3,4,13.5,12.9,13.4,19.3,0,2.9-4.4,6-101.8,70.8C266.9,262,271.8,259.2,256,259.2s-10.9,2.8-123.1-71.9C35.5,122.5,31.1,119.4,31.1,116.5c-.1-7.5,7.5-17.2,15.6-20,3.2-1.2,37.2-1.4,210.8-1.2C448.5,95.5,464.7,95.6,467.5,97.2ZM125.2,219.8C224,285.6,225.2,286.3,240,289c8,1.5,24,1.5,32,0,14.8-2.7,16-3.4,114.8-69.2,51.8-34.5,94.5-62.8,94.7-62.8s.4,54.1.3,120.2c-.3,119.7-.3,120.3-2.4,124.8-2.7,5.8-10.1,12.6-15.2,13.9-2.8.8-65.9,1-210.3.9-190.3-.3-206.6-.4-209.4-2A31.26,31.26,0,0,1,32.6,402c-2.1-4.5-2.1-5.1-2.4-124.8-.1-66.1,0-120.2.3-120.2S73.4,185.3,125.2,219.8Z"/></svg>