<svg xmlns="http://www.w3.org/2000/svg" viewBox="0 0 105.39 106.56"><defs><style>.cls-1{fill:#9c602a;}</style></defs><g id="Capa_2" data-name="Capa 2"><g id="Capa_1-2" data-name="Capa 1"><path class="cls-1" d="M105.39,106.56h-96A9.69,9.69,0,0,1,4.74,89.41a9.89,9.89,0,0,1,9.69-1.52,9.46,9.46,0,0,1,4.89,4.51L19.1,19.64h1L20.33,96l-1,0a8.53,8.53,0,0,0-5.29-7.26A8.78,8.78,0,0,0,2.34,99a8.75,8.75,0,0,0,7.09,6.57h94.95l-.48-95.2-83.35.46-.05-.45C20,4.86,15.1.58,9.86,1A10.07,10.07,0,0,0,1,9.92L2.17,79.73l-1,0L0,9.86A11.08,11.08,0,0,1,9.78,0c5.61-.49,10.86,4,11.66,9.78l83.45-.47Z"/><path class="cls-1" d="M60.14,97.7l.08-.57c.05-.38,1.26-9.22-4.12-14.26a16.74,16.74,0,0,0-5.87-3.38,14.45,14.45,0,0,0-3.7-.6l.15,9.36-1,0-.17-10.38H46a14.58,14.58,0,0,1,4.5.64,17.56,17.56,0,0,1,6.26,3.61c5,4.7,4.7,12.39,4.49,14.56l34.51,0V20H30.17V96.65h23v1h-24V19H96.78V97.65Z"/><polygon class="cls-1" points="69.3 54.01 29.67 54.01 29.67 53.01 68.31 53.01 68.35 45.78 69.35 45.79 69.3 54.01"/><rect class="cls-1" x="81.97" y="52.89" width="14.31" height="1"/><rect class="cls-1" x="68.35" y="19.86" width="1" height="12.39"/></g></g></svg>