<svg id="Capa_1" data-name="Capa 1" xmlns="http://www.w3.org/2000/svg" viewBox="0 0 512 512"><defs><style>.cls-1{fill:#9e572d;}</style></defs><path class="cls-1" d="M48.2,1.5A89.76,89.76,0,0,0,34.2,7,58.65,58.65,0,0,0,6.7,35.1c-2.5,5.2-5,11.8-5.6,14.7-1.5,7.5-1.5,404.9,0,412.4.6,2.9,3.1,9.5,5.6,14.7a57.72,57.72,0,0,0,28.4,28.4c5.2,2.5,11.8,5,14.7,5.6,3.6.8,37.5,1.1,105.7,1.1H256V336H192V256h64V226.2c0-34.8,1-48.7,4.5-60.6,9-31,34-56.1,64.9-65C337.5,97,351.3,96,386.3,96H416v80H389.8c-23.7,0-26.7.2-30.5,1.9-7.3,3.4-7.3,3.4-7.3,43.1v35h39.6c37.3,0,39.6.1,39,1.8-.4.9-7.5,18.9-15.9,39.9L399.5,336H352V512h52.5c33.7,0,54.3-.4,57.7-1.1,2.9-.6,9.5-3.1,14.7-5.6a57.72,57.72,0,0,0,28.4-28.4c2.5-5.2,5-11.8,5.6-14.7,1.5-7.5,1.5-404.9,0-412.4-.6-2.9-3.1-9.5-5.6-14.7A57.72,57.72,0,0,0,476.9,6.7c-5.2-2.5-11.8-5-14.7-5.6C453.9-.6,55.3-.3,48.2,1.5Z"/></svg>