<svg id="Capa_1" data-name="Capa 1" xmlns="http://www.w3.org/2000/svg" viewBox="0 0 512 512"><defs><style>.cls-1{fill:#9e572d;}</style></defs><path class="cls-1" d="M48.2,1.5A89.76,89.76,0,0,0,34.2,7,58.65,58.65,0,0,0,6.7,35.1c-2.5,5.2-5,11.8-5.6,14.7-1.5,7.5-1.5,404.9,0,412.4.6,2.9,3.1,9.5,5.6,14.7a57.72,57.72,0,0,0,28.4,28.4c5.2,2.5,11.8,5,14.7,5.6,3.6.8,37.5,1.1,105.7,1.1H256V320H192V256h64V219.7c0-52.5,1.4-63.9,10.1-82.5,15.6-33.6,46.2-55.4,83-59.2,5.6-.5,18.4-1,28.5-1H396v62.8l-22.7.4c-20.5.4-23.4.7-28.5,2.7a38.71,38.71,0,0,0-22.5,22c-2.2,5.5-2.3,6.1-2.3,48.3V256h77.8l-8.1,32-8.2,32H320V512h68.5c45.2,0,70.2-.4,73.7-1.1,2.9-.6,9.5-3.1,14.7-5.6a57.72,57.72,0,0,0,28.4-28.4c2.5-5.2,5-11.8,5.6-14.7,1.5-7.5,1.5-404.9,0-412.4-.6-2.9-3.1-9.5-5.6-14.7A57.72,57.72,0,0,0,476.9,6.7c-5.2-2.5-11.8-5-14.7-5.6C453.9-.6,55.3-.3,48.2,1.5Zm407,25.6a38.1,38.1,0,0,1,29.7,29.7c1.6,7.5,1.6,390.9,0,398.4a38.1,38.1,0,0,1-29.7,29.7c-3.5.7-22.6,1.1-57.2,1.1H346V346h56.5l14.4-56.8c7.9-31.2,14.6-57.3,14.9-58,.3-.9-8.6-1.2-42.7-1.2H346V203.9c0-29,.4-31.4,6.4-35,2.9-1.8,5.6-1.9,36.9-1.9H423V50.9l-41.7.4c-35.3.3-43,.6-49.3,2.1-46.5,10.8-81.8,42.8-95.9,86.9C231,156.2,230,166.2,230,200v30H166V346h64V486H146c-58.3,0-85.5-.3-89.2-1.1a38.1,38.1,0,0,1-29.7-29.7c-1.6-7.5-1.6-390.9,0-398.4A37.84,37.84,0,0,1,55.5,27.4C62.4,25.7,447.2,25.4,455.2,27.1Z"/></svg>