<svg id="Capa_1" data-name="Capa 1" xmlns="http://www.w3.org/2000/svg" viewBox="0 0 512 512"><defs><style>.cls-1{fill:#9e572d;}</style></defs><path class="cls-1" d="M120.5.6c-1.1.3-5.6,1.2-10,2C63.5,11.5,22.9,47.3,7.2,93.5.1,114.4.5,104.4.5,256c0,128,.1,137,1.8,145C14.1,456.3,55.7,497.9,111,509.7c8,1.7,17,1.8,145,1.8s137-.1,145-1.8c55.3-11.8,96.9-53.4,108.7-108.7,1.7-8,1.8-17,1.8-145s-.1-137-1.8-145C499.3,62.1,464.9,22.9,418.5,7.2,397.6.1,409.3.6,258.5.4,183.7.3,121.6.4,120.5.6Zm279,33.1c28.3,8.5,50.2,24.2,64,45.8,10.7,16.7,15.8,31.9,17.5,52.2,1.3,15.6,1.3,233,0,248.6-1.5,17.9-4.5,28.3-12.8,44-14,26.7-39.5,46.4-69.9,54.1-12.1,3.1-30.1,3.6-142.3,3.6s-130.2-.5-142.3-3.6c-40-10.1-68.9-39-80.4-80.4-1.7-6.1-1.8-14.4-1.8-142s.1-135.9,1.8-142C43.7,76.8,68,49.6,102.2,37a142.2,142.2,0,0,1,20.3-5.3c1.7-.2,63.1-.4,136.5-.3C391.7,31.6,392.5,31.6,399.5,33.7Z"/><path class="cls-1" d="M386.6,68a40.47,40.47,0,0,0-28.7,39.3c-.1,24.1,17.7,41.9,41.8,41.8,18.6,0,33.8-11.3,39.4-29C449.1,87.8,418.8,57.7,386.6,68Zm20,32.4c3.9,3.9,4.5,8.5,1.7,12.6-2.7,3.9-4.5,4.9-9,5-3.3,0-4.8-.6-7.2-3.1-6.8-6.8-2-17.9,7.7-17.9C402.3,97,404.1,97.9,406.6,100.4Z"/><path class="cls-1" d="M233,117.4c-58.3,10.5-102.4,53-114.7,110.6-2.6,12.1-2.6,43.9,0,56,11.9,55.6,54.1,97.8,109.7,109.7,12.1,2.6,43.9,2.6,56,0,55.6-11.9,97.8-54.1,109.7-109.7,1.4-6.6,1.8-13,1.8-28,0-21.5-1.1-29.1-6.7-45.5-15.8-46.4-55.1-81.3-103.8-92C274.8,116.2,243.3,115.6,233,117.4Zm42.7,31.1a110.24,110.24,0,0,1,87.8,87.8c1.9,10.2,1.9,29.2,0,39.4a110.24,110.24,0,0,1-87.8,87.8c-10.2,1.9-29.2,1.9-39.4,0a110.24,110.24,0,0,1-87.8-87.8c-1.9-10.2-1.9-29.2,0-39.4a110.6,110.6,0,0,1,87.1-87.7C245.1,146.7,265.9,146.7,275.7,148.5Z"/></svg>