<svg xmlns="http://www.w3.org/2000/svg" viewBox="0 0 503.94 471.43"><defs><style>.cls-1,.cls-3{fill:#26212c;}.cls-1{stroke:#1d1d1b;stroke-width:0.5px;}.cls-1,.cls-2{stroke-miterlimit:10;}.cls-2{fill:#9e572d;stroke:#fff;stroke-width:0.25px;}</style></defs><g id="Capa_2" data-name="Capa 2"><g id="Capa_1-2" data-name="Capa 1"><path class="cls-1" d="M396.77,271.23H.25V.25H396.77Zm-395.52-1H395.77V1.25H1.25Z"/><rect class="cls-2" x="63.66" y="44.84" width="440.16" height="426.47"/><path d="M441.47,111.59c.9.52,1,1.48,1.35,2.29.56,1.48,1.17,1.65,2.32.47,3.84-3.94,7.74-7.81,11.65-11.68.45-.45.75-1.19,1.62-1.15.24.89-.43,1.43-.79,2-2.68,4.48-5.4,8.93-8.09,13.4-1.33,2.21-1.3,2.23,1.14,2.7a3.28,3.28,0,0,1,2.16.84,5.74,5.74,0,0,1-2.7,1.46c-1.34.55-1.54,1-.43,2.16,2.93,3,5.76,6,8.63,9.08.27.29.67.53.56,1.06-.62.47-1-.11-1.46-.35-3.46-1.93-7-3.8-10.35-5.87-1.82-1.11-2.23-.36-2.36,1.29a4.61,4.61,0,0,1-.75,2.52c-1-.54-1.05-1.53-1.42-2.32-1-2.21-1-2.22-2.68-.59L431.41,137a2,2,0,0,1-1.67.8l7.48-13.54c-1-.06-1.17.59-1.58.9s-.87.6-1.32.28,0-.72.15-1c.3-.58,0-.73-.51-.83s-1.14-.06-1.45-.7c.47-.8,1.36-.9,2.09-1.22,2.2-1,2.27-1.09.7-2.82-2.59-2.82-5.24-5.58-7.85-8.37-.36-.39-.92-.67-.86-1.51a6.11,6.11,0,0,1,2.56,1.16c3.1,1.72,6.23,3.4,9.25,5.26,1.6,1,2,.39,2.22-1.11C440.77,113.36,440.54,112.29,441.47,111.59Zm11.68-2-.35-.31q-4.4,5.66-8.8,11.3a1.07,1.07,0,0,0,.22,1.76c.91.66,1.23-.08,1.59-.66ZM434,131.54l.36.16q3.47-4.42,6.94-8.86c.46-.59.79-1.18,0-1.77s-1.27-.21-1.67.51Q436.82,126.56,434,131.54Z"/><polygon class="cls-3" points="466.66 244.96 363.32 100.17 100.41 102.05 100.4 101.05 363.83 99.17 363.98 99.38 467.47 244.38 466.66 244.96"/><rect class="cls-3" x="180.57" y="82.78" width="1" height="365.48" transform="translate(-98.61 107.19) rotate(-26.19)"/><path class="cls-3" d="M445.5,430H261.73v-1H360a199.62,199.62,0,0,0,1.14-22.59,109.77,109.77,0,0,0-.42-11.75c-1.87-17.61-10.7-31.09-14.94-37.56a78,78,0,0,0-5.27-7.2,64.85,64.85,0,0,1-6.08-8.7,106.93,106.93,0,0,1-9.7-20.72A102.71,102.71,0,0,1,321,306.27l-.11-.59,52.44,0,.06.43a35.24,35.24,0,0,0,4.21,12.26,33.62,33.62,0,0,0,7.33,8.66c.77.71,1.56,1.43,2.37,2.23,8.51,8.32,12.72,17.1,15.8,23.52a96.18,96.18,0,0,1,8.66,52.49l0,.21-.16.12a7.73,7.73,0,0,0-2.74,7.85,7.14,7.14,0,0,0,14,0c1-4.12-2.23-7.2-2.27-7.23l-.17-.17,0-.24a107.07,107.07,0,0,0-2.4-35.24,109.83,109.83,0,0,0-28.53-51.07,17.76,17.76,0,0,1-5.63-8.08,18,18,0,0,1-.28-10.47,260.57,260.57,0,0,0,20.94-78l.1-.92,56.62,46L412.7,303.88l33,45.73ZM361,429H444.5l.24-79.06-33.43-46.28L459.6,268.1l-54.18-44.05a261.13,261.13,0,0,1-20.9,77.27,17.06,17.06,0,0,0,.29,9.82,16.79,16.79,0,0,0,5.35,7.66A110.81,110.81,0,0,1,419,370.37a108,108,0,0,1,2.45,35.34,9,9,0,0,1,2.37,8,8.14,8.14,0,0,1-15.9,0,8.7,8.7,0,0,1,2.92-8.74,95.45,95.45,0,0,0-1.32-30.11,94.4,94.4,0,0,0-7.27-21.64c-3.05-6.35-7.22-15-15.6-23.24-.81-.79-1.59-1.5-2.34-2.21a34.74,34.74,0,0,1-7.53-8.89,36,36,0,0,1-4.26-12.19l-50.37,0a101.72,101.72,0,0,0,3.56,13.48,106.29,106.29,0,0,0,9.6,20.52,63.46,63.46,0,0,0,6,8.59,78.84,78.84,0,0,1,5.33,7.28c4.28,6.54,13.2,20.15,15.1,38a113.82,113.82,0,0,1,.42,11.84A202.16,202.16,0,0,1,361,429Z"/><path class="cls-3" d="M351,429.61l-1-.21a94.89,94.89,0,0,0,2-16.95,91.92,91.92,0,0,0-1-16.33c-2.69-16.87-10.42-29.07-13.72-34.28a91.66,91.66,0,0,0-5.4-7.66c-.63-.81-1.24-1.61-1.88-2.48-8.76-11.93-15-27.09-18.42-45.06H258.81c2.17,7.47,4.64,15,7.35,22.41,2.36,6.47,5,12.83,10.78,26.58,5.53,13.17,8.12,19.3,11.48,26.59,3.15,6.8,6.46,13.57,9.84,20.13a8.8,8.8,0,0,1,1.78,16l-.09,0a9.3,9.3,0,0,1-7.72-.59c-3.34-2.06-4.84-6.55-3.61-10.74C279,388,270.09,368.29,262.16,348.45c-6.94-17.37-13.3-35.24-18.91-53.1-7.62-19.25-16.6-36.09-26.68-50a147.41,147.41,0,0,0-9.8-12.4c-7.48-8.44-15.07-14.92-24.67-23.12-1.71-1.47-3.21-2.74-4.54-3.86-6.72-5.66-9-7.57-11.38-12.09-1.75-3.31-2.69-7.72-4.4-15.72-1.49-7-2.11-11.14-2.66-14.81A112.05,112.05,0,0,0,156.73,151a155.42,155.42,0,0,0-5.67-17.57,203,203,0,0,0-9.58-21.59H104.79v-1h37.29l.14.27a201.45,201.45,0,0,1,9.77,22,156.61,156.61,0,0,1,5.71,17.68,114.25,114.25,0,0,1,2.41,12.44c.54,3.65,1.16,7.79,2.65,14.75,1.81,8.51,2.69,12.41,4.3,15.46,2.3,4.35,4.53,6.23,11.14,11.8,1.33,1.12,2.84,2.39,4.55,3.86,9.63,8.23,17.24,14.73,24.77,23.22a150.08,150.08,0,0,1,9.86,12.47c10.12,14,19.15,30.93,26.81,50.28,5.61,17.87,12,35.72,18.9,53.07C271,368,280,387.72,289.6,406.83l.09.18-.06.2c-1.2,3.81.12,7.92,3.13,9.78a8.24,8.24,0,0,0,6.8.52,8.47,8.47,0,0,0,3.86-6,8.37,8.37,0,0,0-5.69-8.27l-.18-.07-.09-.17c-3.42-6.63-6.77-13.47-9.94-20.34-3.38-7.3-6-13.44-11.5-26.62-5.78-13.77-8.43-20.14-10.8-26.62-2.79-7.65-5.34-15.42-7.56-23.12l-.18-.64h55l.07.41c3.42,18,9.58,33.16,18.33,45.06.63.86,1.24,1.66,1.86,2.46a93.76,93.76,0,0,1,5.46,7.73c3.33,5.27,11.13,17.59,13.86,34.67a92.61,92.61,0,0,1,1,16.51A95.09,95.09,0,0,1,351,429.61Z"/><rect class="cls-3" x="152.62" y="110.25" width="25.26" height="1"/><path class="cls-3" d="M280,297.13H254.09l-.11-.35c-1.73-5.27-3.71-10.54-5.89-15.65-1.13-2.68-3.51-8.07-6.63-14.07-9-17.18-19.09-29.76-25.14-37.28a147.66,147.66,0,0,0-16.77-18c-2.34-2.05-4.67-4-4.69-4-2.43-2-3.9-3.16-5.32-4.26s-2.72-2.12-4.78-3.86l-.26-.21c-4-3.34-5.45-4.59-7.07-6.62a28.87,28.87,0,0,1-4.75-8.16c-.46-1.24-.51-1.62-1.88-11.33l-.29-2c-.44-3.12-.69-4.85-1.17-7.3s-1-4.61-1.42-6.24c-3.8-14.8-6.59-23.22-6.62-23.3-2.64-7.94-5.72-15.88-9.13-23.59l.91-.4c3.43,7.74,6.52,15.7,9.17,23.67,0,.09,2.83,8.54,6.64,23.37.42,1.65.92,3.69,1.43,6.29s.74,4.23,1.18,7.36l.29,2c1.33,9.42,1.41,10,1.83,11.12a28.1,28.1,0,0,0,4.59,7.89c1.56,2,2.91,3.09,6.94,6.48l.25.21c2,1.72,3.36,2.74,4.76,3.83s2.9,2.26,5.33,4.28c0,0,2.36,2,4.72,4a148.28,148.28,0,0,1,16.88,18.11c6.08,7.55,16.26,20.18,25.26,37.45,3.14,6,5.52,11.45,6.66,14.14,2.14,5,4.09,10.2,5.8,15.39h24.28c.74-9.9,1.07-28.67-4.52-46.5a86.3,86.3,0,0,0-11.35-24.08c-.39-.57-.55-.78-1.81-2.41l-3.11-4-.19-.24c-8.43-11-12.66-16.52-14.91-19.6a154.44,154.44,0,0,1-15.58-27.14,204.19,204.19,0,0,1-10.81-30l-.49-1.68c-1.2-4-2.23-8.14-3.08-12.25a148.72,148.72,0,0,1-2.49-16.94H175.49v-1h36.17l0,.46A150.18,150.18,0,0,0,214.22,128c.85,4.08,1.87,8.17,3.05,12.17l.5,1.68a203.37,203.37,0,0,0,10.76,29.85,153.22,153.22,0,0,0,15.48,27c2.24,3.07,6.47,8.59,14.9,19.58l.18.24c1.47,1.92,2.45,3.18,3.11,4.05,1.28,1.65,1.44,1.86,1.84,2.45a87.29,87.29,0,0,1,11.48,24.35c5.73,18.27,5.3,37.5,4.53,47.34Z"/><path class="cls-3" d="M375.64,297.17H325.92l.43-.75a231.91,231.91,0,0,0,30.17-111.93l0-1,40.51,32.41,0,.28a302.2,302.2,0,0,1-21.25,80.7Zm-48-1H375a302.05,302.05,0,0,0,12.94-38A300.32,300.32,0,0,0,396,216.31l-38.48-30.78a233.14,233.14,0,0,1-29.87,110.64Z"/><path class="cls-3" d="M315.78,297.17l-27.26,0,.07-.56c1.89-15,1.84-37.89-9.15-61.4a106.6,106.6,0,0,0-14.66-23l-.45-.55.66-.24c12.22-4.55,24.51-9.4,36.55-14.44,15.52-6.49,31.07-13.47,46.24-20.75l.71-.34v.79a233.76,233.76,0,0,1-32.57,120.32Zm-26.12-1,25.55,0A232.89,232.89,0,0,0,347.5,177.39c-15,7.17-30.29,14-45.58,20.43-11.83,5-23.91,9.73-35.92,14.21a107.92,107.92,0,0,1,14.35,22.72C291.3,258.18,291.49,281,289.66,296.13Z"/><path class="cls-3" d="M259.13,204.73l-.22-.28A185.19,185.19,0,0,1,220,110.81l-.06-.54.54,0c7.45-.35,15.07-.54,22.59-.52h.58c10.66,0,16,0,19.41.94,5.29,1.45,9.07,3.77,25.55,17.29,7.37,6,11.07,9.08,15.3,12.77,10.95,9.57,22.78,19.38,35.16,29.16l.63.49-.72.35c-11.5,5.57-23.28,11-35,16-14.6,6.31-29.56,12.32-44.49,17.84ZM221,111.22a184.1,184.1,0,0,0,38.43,92.32c14.79-5.49,29.63-11.44,44.09-17.69,11.47-5,23-10.23,34.25-15.67-12.17-9.63-23.8-19.28-34.58-28.69-4.21-3.69-7.91-6.72-15.27-12.76-16.34-13.4-20-15.69-25.18-17.1-3.28-.9-8.58-.9-19.15-.9h-.58C235.7,110.75,228.31,110.89,221,111.22Z"/><path class="cls-3" d="M457.05,252.65,281.39,109.75,355,108.61l.16.22ZM284.15,110.7,452,247.25,354.51,109.62Z"/><rect class="cls-3" x="401.3" y="202.06" width="17.74" height="1" transform="translate(-29.6 328.56) rotate(-42.27)"/><path class="cls-3" d="M341.44,137.08a3.2,3.2,0,1,1,3.2-3.2A3.2,3.2,0,0,1,341.44,137.08Zm0-5.39a2.2,2.2,0,1,0,2.2,2.19A2.2,2.2,0,0,0,341.44,131.69Z"/><path class="cls-3" d="M417.41,208.46a3.2,3.2,0,1,1,3.2-3.2A3.2,3.2,0,0,1,417.41,208.46Zm0-5.39a2.2,2.2,0,1,0,2.2,2.19A2.2,2.2,0,0,0,417.41,203.07Z"/><rect class="cls-3" x="350.36" y="36.16" width="1" height="272.58" transform="translate(-4.02 336.47) rotate(-50.98)"/><rect class="cls-3" x="410.61" y="424.06" width="9.88" height="1" transform="translate(-11.44 837.62) rotate(-89.66)"/><rect class="cls-3" x="423.33" y="413.13" width="21.73" height="1"/><rect class="cls-3" x="421.14" y="395.21" width="1" height="0.42" transform="translate(4.44 795.52) rotate(-86.96)"/><rect class="cls-3" x="421.64" y="394.92" width="23.47" height="1"/><rect class="cls-3" x="420.04" y="376.83" width="25.17" height="1" transform="translate(-31.82 39.94) rotate(-5.1)"/><rect class="cls-3" x="416.33" y="360.01" width="29.71" height="1" transform="translate(-94.01 160.36) rotate(-19.04)"/><rect class="cls-3" x="411.22" y="346.27" width="28.67" height="1" transform="translate(-112.64 238.65) rotate(-27.82)"/><rect class="cls-3" x="403.87" y="332.36" width="26.13" height="1" transform="translate(-113.58 276.4) rotate(-32.53)"/><rect class="cls-3" x="394.21" y="318.71" width="25.93" height="1" transform="translate(-109.64 295) rotate(-35.41)"/><rect class="cls-3" x="382.58" y="304.79" width="27.38" height="1" transform="translate(-103.67 288.27) rotate(-35.66)"/><rect class="cls-3" x="402.08" y="274.33" width="1" height="32.45" transform="translate(-93.9 287.84) rotate(-35.51)"/><rect class="cls-3" x="409.62" y="258.05" width="1" height="42.03" transform="translate(-85.75 292.76) rotate(-35.81)"/><rect class="cls-3" x="416.7" y="240.26" width="1" height="53.24" transform="translate(-77.34 293.56) rotate(-35.69)"/><rect class="cls-3" x="420.26" y="265.82" width="29.95" height="1" transform="translate(-73.22 309.05) rotate(-36.27)"/><rect class="cls-3" x="409.32" y="251.44" width="24.63" height="1" transform="translate(-67.39 297.83) rotate(-36.22)"/><rect class="cls-3" x="362.05" y="413.11" width="46.34" height="1"/><rect class="cls-3" x="361.35" y="396.06" width="50.83" height="1" transform="translate(-50.27 56.2) rotate(-7.81)"/><rect class="cls-3" x="359.22" y="380.28" width="51.49" height="1" transform="translate(-78.22 100.34) rotate(-13.49)"/><rect class="cls-3" x="354.19" y="364.87" width="51.54" height="1" transform="translate(-106.08 161.33) rotate(-21.11)"/><rect class="cls-3" x="348.37" y="356.23" width="24.44" height="1" transform="translate(-129.08 224.42) rotate(-29.57)"/><rect class="cls-3" x="370.56" y="346.04" width="27.15" height="1" transform="translate(-87.8 134.58) rotate(-17.87)"/><rect class="cls-3" x="338.13" y="342.2" width="22.32" height="1" transform="translate(-110.85 176.22) rotate(-24.56)"/><rect class="cls-3" x="359.05" y="334.18" width="29.96" height="1" transform="translate(-65.84 92.97) rotate(-13.03)"/><rect class="cls-3" x="349.26" y="321.83" width="29.79" height="1" transform="translate(-18.26 21.9) rotate(-3.36)"/><rect class="cls-3" x="328.06" y="325.37" width="21.56" height="1" transform="translate(-70.02 93.85) rotate(-14.31)"/><path class="cls-3" d="M388.6,413.28h-1l.22-16.93-.67-16.12c-.64-2.06-1.26-4.11-1.83-6.11-.12-.41-.76-2.46-2.1-6.69a12.7,12.7,0,0,0-1.18-2.77,11.65,11.65,0,0,0-1.82-2.38c-1.88-1.94-3.63-4-5.32-6.07-1.38-1.66-2.82-3.39-4.31-5-2.88-3.11-3.65-4-4.73-5.23s-2.48-2.84-6.79-7.57l-.13-.14a56.42,56.42,0,0,1-6.39-8,51,51,0,0,1-3.72-6.86l.91-.41a50.86,50.86,0,0,0,3.65,6.73,55.47,55.47,0,0,0,6.29,7.85l.13.14c4.31,4.74,5.7,6.32,6.81,7.6s1.83,2.1,4.7,5.2c1.51,1.63,3,3.37,4.35,5,1.68,2,3.41,4.1,5.26,6a13.2,13.2,0,0,1,3.24,5.56c1.34,4.24,2,6.29,2.11,6.71.57,2,1.19,4.09,1.84,6.16l0,.13.67,16.21Z"/><rect class="cls-3" x="379.53" y="420.89" width="16.25" height="1" transform="translate(-54.32 785.41) rotate(-86.86)"/><rect class="cls-3" x="374.29" y="198.66" width="1" height="44.48" transform="translate(0.04 441.87) rotate(-61.04)"/><path class="cls-3" d="M353,296.83l-.94-.32,6-17.88,5.06-18.26A191.08,191.08,0,0,0,372.74,220L375,199.24l1,.1-2.28,20.75a190.55,190.55,0,0,1-3.79,20.85,193.3,193.3,0,0,1-5.85,19.73L359,278.92Z"/><rect class="cls-3" x="370.5" y="220.21" width="1" height="42.03" transform="translate(33.85 527.86) rotate(-73.4)"/><polygon class="cls-3" points="387.16 263.13 363.57 261 344.8 256.55 345.04 255.57 363.73 260.01 387.25 262.13 387.16 263.13"/><polygon class="cls-3" points="382.05 279.47 358.62 278.99 336.42 278.17 336.45 277.17 358.65 277.99 382.07 278.47 382.05 279.47"/><rect class="cls-3" x="287.69" y="204.1" width="1" height="33.88" transform="translate(-69.19 156.27) rotate(-27.22)"/><rect class="cls-3" x="301.04" y="198.96" width="1" height="39.24" transform="translate(-66.81 163.55) rotate(-27.44)"/><rect class="cls-3" x="311.09" y="194.52" width="1" height="31.84" transform="translate(-61.8 166.28) rotate(-27.29)"/><rect class="cls-3" x="323.17" y="189.33" width="1" height="31.95" transform="translate(-58.1 171.19) rotate(-27.28)"/><rect class="cls-3" x="334.75" y="184.2" width="1" height="32.14" transform="translate(-54.3 172.87) rotate(-26.83)"/><rect class="cls-3" x="305.57" y="220.93" width="41.41" height="1" transform="translate(-60.92 146.83) rotate(-23.26)"/><rect class="cls-3" x="280.44" y="235.57" width="60.21" height="1" transform="translate(-0.69 0.91) rotate(-0.17)"/><polygon class="cls-3" points="303.18 296.77 302.21 296.53 308.63 270.85 310.31 251.94 310.08 236.01 311.08 235.99 311.31 251.98 309.61 271.02 303.18 296.77"/><rect class="cls-3" x="308.55" y="251.56" width="1" height="39" transform="translate(36.58 578.86) rotate(-89.74)"/><rect class="cls-3" x="286.13" y="251.45" width="49.81" height="1"/><path class="cls-3" d="M266.62,296.68l-3.07-27.4-2.67-9.8-.31-.65-5-10.64c-1.33-2.37-2.81-4.73-4.38-7A86.71,86.71,0,0,0,243,231.08l-13.13-16L217.59,199.6l-11.66-13.79-11.55-11.76-2.28-16.8L186.6,141l-2.89-15.63-4.08-14.51,1-.27,4.1,14.55,2.87,15.61L193.07,157l2.26,16.57,11.34,11.55L218.37,199l12.29,15.48,13.1,16a87.78,87.78,0,0,1,8.29,10.21c1.59,2.28,3.09,4.67,4.45,7.1l5.31,11.4,2.72,10,3.09,27.48Z"/><rect class="cls-3" x="244.89" y="270.74" width="19.38" height="1" transform="translate(-51.04 59.15) rotate(-12.06)"/><rect class="cls-3" x="263.95" y="267.55" width="14.57" height="1" transform="translate(-39.46 46.94) rotate(-9.22)"/><rect class="cls-3" x="235.54" y="252.17" width="21.6" height="1" transform="translate(-85.23 131.9) rotate(-25.71)"/><rect class="cls-3" x="255.24" y="243.78" width="17.47" height="1" transform="translate(-78.53 134.53) rotate(-25.01)"/><rect class="cls-3" x="224.86" y="235.95" width="20.27" height="1" transform="translate(-92.37 173.52) rotate(-34.3)"/><rect class="cls-3" x="242.05" y="225.32" width="19.68" height="1" transform="translate(-79.19 156.33) rotate(-30.02)"/><rect class="cls-3" x="212.08" y="219.99" width="19.99" height="1" transform="translate(-86.26 166.96) rotate(-34.95)"/><rect class="cls-3" x="228.95" y="209.26" width="20.33" height="1" transform="translate(-72.26 144.77) rotate(-29.47)"/><rect class="cls-3" x="197.64" y="204.97" width="22.22" height="1" transform="translate(-79.06 151.09) rotate(-33.85)"/><rect class="cls-3" x="216.4" y="193.16" width="21.6" height="1" transform="translate(-67.64 146.86) rotate(-31.42)"/><rect class="cls-3" x="183.57" y="192.34" width="25.18" height="1" transform="translate(-73.88 140.46) rotate(-33.53)"/><rect class="cls-3" x="204.74" y="178.67" width="25.51" height="1" transform="translate(-61.75 141.41) rotate(-31.78)"/><polygon class="cls-3" points="173.37 184.97 172.93 184.07 194.63 173.37 223.4 159.94 223.83 160.85 195.06 174.27 173.37 184.97"/><rect class="cls-3" x="168.59" y="155.57" width="51.78" height="1" transform="translate(-38.42 66.98) rotate(-17.82)"/><rect class="cls-3" x="164.71" y="140.32" width="51.34" height="1" transform="translate(-23.32 38.8) rotate(-10.97)"/><rect class="cls-3" x="159.22" y="124.89" width="53.72" height="1" transform="translate(-8.13 13.01) rotate(-3.92)"/><rect class="cls-3" x="113.89" y="125.74" width="33.74" height="1" transform="translate(-23.02 29.36) rotate(-11.78)"/><rect class="cls-3" x="119.68" y="137.56" width="32.75" height="1" transform="translate(-25.53 31) rotate(-11.89)"/><rect class="cls-3" x="125.56" y="149.6" width="30.91" height="1" transform="translate(-28.96 33.81) rotate(-12.41)"/><rect class="cls-3" x="132" y="162.55" width="27.53" height="1" transform="translate(-39.5 46.81) rotate(-16.1)"/><rect class="cls-3" x="139.38" y="177.59" width="23.09" height="1" transform="translate(-64.11 87.23) rotate(-26.82)"/><rect class="cls-3" x="149.55" y="198.76" width="18.88" height="1" transform="translate(-71.19 89.72) rotate(-25.96)"/><rect class="cls-3" x="157.45" y="214.03" width="25.65" height="1" transform="translate(-77.15 97.07) rotate(-26.17)"/><rect class="cls-3" x="163.36" y="225.35" width="31.61" height="1" transform="translate(-81.01 101.69) rotate(-26.06)"/><rect class="cls-3" x="174.26" y="246.52" width="40.06" height="1" transform="translate(-89.96 112.97) rotate(-26.57)"/><rect class="cls-3" x="179.79" y="257.55" width="41.96" height="1" transform="translate(-94.21 117.03) rotate(-26.57)"/><rect class="cls-3" x="185.32" y="268.63" width="43.36" height="1" transform="translate(-97.99 119.92) rotate(-26.36)"/><rect class="cls-3" x="190.91" y="279.92" width="43.98" height="1" transform="translate(-101.7 122.34) rotate(-26.11)"/><rect class="cls-3" x="196.58" y="291.46" width="43.9" height="1" transform="translate(-105.33 124.3) rotate(-25.81)"/><rect class="cls-3" x="213.4" y="326.11" width="39.88" height="1" transform="translate(-120.27 136.66) rotate(-26.21)"/><rect class="cls-3" x="219.12" y="337.91" width="38.44" height="1" transform="translate(-126.01 142) rotate(-26.51)"/><rect class="cls-3" x="224.81" y="349.61" width="37.22" height="1" transform="translate(-129.8 143.86) rotate(-26.26)"/><rect class="cls-3" x="230.5" y="361.31" width="36.23" height="1" transform="translate(-134.81 148.04) rotate(-26.36)"/><rect class="cls-3" x="236.25" y="373.08" width="35.44" height="1" transform="translate(-137.92 148.9) rotate(-25.96)"/><rect class="cls-3" x="241.86" y="384.54" width="34.91" height="1" transform="translate(-143.42 154.15) rotate(-26.21)"/><rect class="cls-3" x="247.51" y="396.07" width="34.58" height="1" transform="translate(-147.1 156.32) rotate(-26.01)"/><rect class="cls-3" x="253.15" y="407.55" width="34.47" height="1" transform="translate(-152.65 161.78) rotate(-26.26)"/><rect class="cls-3" x="258.91" y="419.56" width="31.93" height="1" transform="translate(-162.33 173.36) rotate(-27.37)"/><rect class="cls-3" x="301.98" y="417.23" width="1" height="12.67" transform="translate(-129.04 132.54) rotate(-20.47)"/><rect class="cls-3" x="303.84" y="411.59" width="48.69" height="1" transform="translate(-0.8 0.64) rotate(-0.11)"/><rect class="cls-3" x="296.38" y="396.53" width="30.25" height="1" transform="translate(-45.11 39.97) rotate(-6.85)"/><rect class="cls-3" x="338.5" y="382.87" width="1" height="24.95" transform="translate(-59.68 730.43) rotate(-89.43)"/><rect class="cls-3" x="289.83" y="383.41" width="29.03" height="1" transform="translate(-79.02 78.88) rotate(-13.09)"/><rect class="cls-3" x="264.96" y="324.66" width="24.45" height="1" transform="translate(-79.3 89.62) rotate(-16.1)"/><rect class="cls-3" x="302.55" y="309.42" width="1" height="28.47" transform="translate(-57.74 581.37) rotate(-82.42)"/><rect class="cls-3" x="307.57" y="323.6" width="1" height="29.42" transform="translate(-41.08 634.03) rotate(-87.94)"/><rect class="cls-3" x="271.53" y="341.24" width="22.56" height="1" transform="translate(-102.14 121.32) rotate(-20.6)"/><rect class="cls-3" x="278.07" y="356.7" width="24.24" height="1" transform="translate(-105.07 121.47) rotate(-20.1)"/><rect class="cls-3" x="283.95" y="370.38" width="28.68" height="1" transform="translate(-84.42 87.93) rotate(-14.72)"/><rect class="cls-3" x="312.13" y="365.83" width="28.03" height="1" transform="translate(-23.27 22.12) rotate(-3.75)"/><rect class="cls-3" x="301.56" y="351.93" width="29.22" height="1" transform="translate(-14.51 13.58) rotate(-2.4)"/><polygon class="cls-3" points="328.42 429.5 327.42 429.5 327.42 412.09 326.03 395.37 317.64 380.13 347.36 379.54 347.38 380.54 319.32 381.1 327.02 395.19 328.42 412.05 328.42 429.5"/><rect class="cls-3" x="314.82" y="366.53" width="1" height="14.79" transform="translate(-129.5 170.5) rotate(-25.28)"/><rect class="cls-3" x="306.37" y="351.29" width="1" height="17.71" transform="matrix(0.8, -0.6, 0.6, 0.8, -154.42, 254.86)"/><rect class="cls-3" x="296.97" y="336.75" width="1" height="17.33" transform="translate(-128.1 182.04) rotate(-28.26)"/><rect class="cls-3" x="290.65" y="321.47" width="1" height="16.61" transform="translate(-77.45 89.66) rotate(-15.48)"/><polygon class="cls-3" points="242.76 179.63 242.41 178.7 278.76 164.83 270.24 155.06 260.24 144.8 255.28 132.7 247.93 110.39 248.88 110.08 256.22 132.35 261.13 144.33 270.98 154.38 280.46 165.25 242.76 179.63"/><rect class="cls-3" x="278.32" y="157.57" width="39.06" height="1" transform="translate(-36.83 116.94) rotate(-20.95)"/><rect class="cls-3" x="265.32" y="170.55" width="1" height="30.84" transform="translate(-57.73 209.69) rotate(-39.17)"/><rect class="cls-3" x="280.99" y="164.51" width="1" height="30.63" transform="translate(-49.83 222.27) rotate(-39.87)"/><rect class="cls-3" x="296.71" y="158.47" width="1" height="29.55" transform="translate(-41.58 232.99) rotate(-40.24)"/><rect class="cls-3" x="312.48" y="152.55" width="1" height="28.8" transform="translate(-35.51 233.19) rotate(-38.84)"/><rect class="cls-3" x="225.36" y="132.3" width="57.74" height="1" transform="translate(-30.47 97.91) rotate(-20.6)"/><rect class="cls-3" x="222.85" y="124.12" width="29.51" height="1" transform="translate(-27.25 81.78) rotate(-18.49)"/><rect class="cls-3" x="234.35" y="154.32" width="72.55" height="1" transform="translate(-37.46 106.99) rotate(-20.95)"/><rect class="cls-3" x="229.49" y="143.65" width="65.76" height="1" transform="translate(-34.41 104.9) rotate(-21.25)"/></g></g></svg>