<svg xmlns="http://www.w3.org/2000/svg" viewBox="0 0 100.21 100.21"><defs><style>.cls-1{fill:#9c602a;}</style></defs><g id="Capa_2" data-name="Capa 2"><g id="Capa_1-2" data-name="Capa 1"><path class="cls-1" d="M74,100.21H26.2A26.23,26.23,0,0,1,0,74V26.2A26.23,26.23,0,0,1,26.2,0H74a26.23,26.23,0,0,1,26.2,26.2V74A26.23,26.23,0,0,1,74,100.21ZM26.2,1A25.23,25.23,0,0,0,1,26.2V74a25.22,25.22,0,0,0,25.2,25.2H74A25.22,25.22,0,0,0,99.21,74V26.2A25.23,25.23,0,0,0,74,1Z"/><path class="cls-1" d="M32.91,76.47l3.28-19.16L22.28,43.75,41.51,41l8.6-17.43L58.71,41l19.23,2.79L64,57.31l3.29,19.16-17.2-9Zm17.2-10.18L66,74.64,63,57,75.79,44.45,58,41.87,50.11,25.79,42.17,41.87,24.43,44.45,37.27,57l-3,17.68Z"/></g></g></svg>