<svg xmlns="http://www.w3.org/2000/svg" viewBox="0 0 117.75 107.36"><defs><style>.cls-1{fill:#9c602a;}</style></defs><g id="Capa_2" data-name="Capa 2"><g id="Capa_1-2" data-name="Capa 1"><path class="cls-1" d="M101.92,107.36H25.77v-1h76a8.29,8.29,0,0,0,0-16.15H59.64a9.45,9.45,0,0,1,.16-18.66h50.38a8.36,8.36,0,0,0-.64-16.44H47.64a9.56,9.56,0,0,1-.47-18.86h.1l37.83.35v1h-.18l-37.6-.35a8.56,8.56,0,0,0,.41,16.87h61.89a9.36,9.36,0,0,1,.73,18.43H59.89a8.45,8.45,0,0,0-.16,16.68h42.19l.06,0a9.28,9.28,0,0,1,0,18.12Z"/><path class="cls-1" d="M92.65,37.51,80,22.55a12.22,12.22,0,0,1-2.73-6.64,15,15,0,0,1,4.34-11A15.07,15.07,0,0,1,92.75,0a14.87,14.87,0,0,1,10.64,4.88A15.67,15.67,0,0,1,107.82,16a12.85,12.85,0,0,1-2.29,6.51ZM80.76,21.93l11.9,14,12.08-14a11.87,11.87,0,0,0,2.08-6,14.62,14.62,0,0,0-4.16-10.39A13.82,13.82,0,0,0,92.74,1,14,14,0,0,0,82.31,5.63a14,14,0,0,0-4.06,10.2A11.27,11.27,0,0,0,80.76,21.93Z"/><path class="cls-1" d="M92.53,22.53a7.37,7.37,0,1,1,7.37-7.37A7.38,7.38,0,0,1,92.53,22.53Zm0-13.74a6.37,6.37,0,1,0,6.37,6.37A6.38,6.38,0,0,0,92.53,8.79Z"/><path class="cls-1" d="M15.43,107.36l-12.67-15A12.25,12.25,0,0,1,0,85.76a15,15,0,0,1,4.33-11,15.07,15.07,0,0,1,11.17-4.94,14.85,14.85,0,0,1,10.64,4.88,15.62,15.62,0,0,1,4.42,11.13,12.77,12.77,0,0,1-2.28,6.51ZM3.54,91.78l11.89,14,12.08-14a11.73,11.73,0,0,0,2.09-6,14.68,14.68,0,0,0-4.16-10.39,13.86,13.86,0,0,0-9.92-4.56A13.87,13.87,0,0,0,5.09,75.48,13.91,13.91,0,0,0,1,85.69,11.2,11.2,0,0,0,3.54,91.78Z"/><path class="cls-1" d="M15.31,92.38A7.37,7.37,0,1,1,22.68,85,7.38,7.38,0,0,1,15.31,92.38Zm0-13.74A6.37,6.37,0,1,0,21.68,85,6.38,6.38,0,0,0,15.31,78.64Z"/></g></g></svg>