<svg id="Capa_1" data-name="Capa 1" xmlns="http://www.w3.org/2000/svg" viewBox="0 0 512 512"><defs><style>.cls-1{fill:#9c602a;}</style></defs><path class="cls-1" d="M243,15.6c-49.9,4.3-91.6,19.7-129,47.8-11.8,8.8-31.8,28.2-41.5,40.1C45.5,136.7,28,177.1,21.3,221c-2.1,14.2-2.3,48-.4,62,4,29.5,12.6,57,25,80.7l4.9,9.1L34,434.2c-9.3,33.7-16.7,61.5-16.4,61.7s28.6-7,63.1-16.1l62.7-16.5,12.3,5.9C204,492.3,262.5,498.1,315,485a247.59,247.59,0,0,0,92.7-46c25.8-20.9,50.7-52.5,64.8-82.5A238.11,238.11,0,0,0,492.4,213C475.5,112.4,394.1,32.9,292.8,18,280.4,16.2,252.2,14.8,243,15.6Zm42.4,43c42.2,5.8,80.2,24.9,111.2,55.8,47.5,47.6,67.3,113.3,53.9,178.8a199.63,199.63,0,0,1-41.7,86.3c-31,37.2-72.6,60.8-121.3,69.2-14,2.3-46.3,2.3-60,0-25.5-4.5-48-12.5-68.9-24.6l-8.9-5.1-36.4,9.6c-20.1,5.2-36.7,9.3-36.9,9.1s3.9-16.4,9.3-36l9.7-35.6-5.1-8.3c-27-44.2-35.8-93.5-25.8-143.3C78.6,144.6,130.8,86.9,199.1,65.6,228,56.6,254.9,54.4,285.4,58.6Z"/><path class="cls-1" d="M167.8,143.9c-11.2,3.7-25.8,23-29.7,39.2-6,25.6,1.8,51.3,25.8,84.3,21.8,30,45.4,53.3,71.3,70.3,16.8,11,46,23.7,65.3,28.4,10.1,2.4,28.4,2.6,36.9.4,13.2-3.5,29.7-14.7,35-23.8,3.5-5.9,5.8-15.9,6-25,.1-7.1-.1-8-2.3-9.6-4.8-3.7-51.2-25.1-55.5-25.7-5.2-.8-5.4-.6-15.5,12.5-10.4,13.4-15.3,18.1-18.6,18.1-4.2,0-29.7-13-40.2-20.6a184.13,184.13,0,0,1-17.5-14.7C214.9,264,199,242.1,199,236.6c0-1.8,1.9-5.1,5.4-9.5C215.3,213.5,218,209,218,204.6c0-5.2-19.5-52.6-23.7-57.5-2.8-3.3-2.8-3.3-13.3-3.7C175.2,143.2,169.3,143.4,167.8,143.9Z"/></svg>