<svg id="Capa_1" data-name="Capa 1" xmlns="http://www.w3.org/2000/svg" viewBox="0 0 512 512"><defs><style>.cls-1{fill:#9c602a;}</style></defs><path class="cls-1" d="M162.5,78.1C114.3,79.7,78,82.5,61,86c-23.9,4.9-43.1,21.7-50.1,44-4.4,14.2-8,42.4-10,78.9C-.4,233.1.2,302.1,1.9,322c2.8,32.2,6.1,52.5,10.4,64,6.5,17.7,23.2,33.1,41.5,38.5,47.2,14,330.9,15.3,398.2,1.9A65.36,65.36,0,0,0,498.3,390c5-11.1,8.8-32.8,11.9-69.5,1.7-20.2,1.8-110.7,0-130.5-2.9-33.6-6.8-56.2-11.7-66.7a64.88,64.88,0,0,0-36.1-33.9c-15.3-5.7-51-9.1-119.4-11.4C309.2,76.9,196.7,76.9,162.5,78.1ZM270.9,217.2c35.5,20.4,65.2,37.6,65.8,38.2,1,.9-13.7,9.8-62,37.6-34.7,20-64.7,37.3-66.4,38.3l-3.3,1.9V256.6c0-42.1.3-76.6.6-76.6S235.3,196.7,270.9,217.2Z"/></svg>