<svg version="1.1" id="Layer_1" xmlns="http://www.w3.org/2000/svg" xmlns:xlink="http://www.w3.org/1999/xlink" x="0px" y="0px"
	 viewBox="0 0 139.8 86.6" style="enable-background:new 0 0 139.8 86.6;" xml:space="preserve">
<style type="text/css">
	.st0{fill:#BDBDBD;}
	.st1{fill:none;}
</style>
<path class="st0" d="M14.3,83c-0.4-0.4-0.9-0.8-1.4-1c-0.4-0.2-0.8-0.4-1.1-0.7c-0.3-0.3-0.4-0.6-0.5-1c0-0.3,0.1-0.6,0.3-0.9
	c0.2-0.2,0.5-0.4,0.9-0.3c0.4,0,0.7,0.2,1,0.4c0.3,0.3,0.5,0.6,0.6,1c0,0.2,0.1,0.2,0.2,0.2s0.1,0,0.1-0.1v-0.1c0,0,0,0,0-0.1v-0.2
	c0-0.3-0.1-0.5-0.1-0.8c0-0.2,0-0.4,0-0.6c0,0,0-0.1,0-0.1v-0.1c0-0.1,0-0.1-0.1-0.1c-0.1,0-0.1,0-0.1,0.1c0,0,0,0,0,0l0,0
	c0,0.1,0,0.2-0.1,0.2c-0.1,0-0.1,0-0.2,0c-0.1,0-0.2,0-0.3-0.1c-0.3-0.1-0.7-0.2-1-0.2c-0.5,0-1.1,0.2-1.4,0.6
	c-0.4,0.4-0.6,0.9-0.6,1.5l0,0v0.1c0,0.4,0.1,0.8,0.4,1.2c0.4,0.4,0.9,0.8,1.4,1c0.5,0.2,0.9,0.5,1.2,0.8c0.2,0.3,0.3,0.6,0.3,1
	c0,0.4-0.1,0.7-0.4,1c-0.3,0.3-0.6,0.4-1,0.4c-1,0-1.6-0.6-1.8-1.9c0-0.2-0.1-0.3-0.1-0.3s-0.1,0-0.1,0.2v0.1c0,0.1,0,0.1,0,0.2V85
	c0,0.4,0,0.8-0.1,1.2v0.1l0,0v0.1c0,0.1,0,0.1,0.1,0.1c0,0,0,0,0,0c0.1,0,0.1,0,0.1-0.2s0.1-0.3,0.2-0.3c0.1,0,0.2,0,0.3,0.1
	c0.4,0.2,0.9,0.3,1.4,0.3c0.6,0,1.2-0.2,1.7-0.6c0.5-0.4,0.7-1,0.7-1.6v-0.1C14.7,83.8,14.6,83.3,14.3,83"/>
<path class="st0" d="M21.5,86.2c0-0.1-0.1-0.1-0.2-0.1H21c-0.1,0-0.2-0.1-0.2-0.3c-0.9-2.2-1.5-3.6-1.7-4.2C19,81.5,19,81.3,19,81.3
	c-0.1,0-0.1,0.1-0.1,0.2l-0.1,0.2l-0.2,0.4c-0.2,0.6-0.4,1-0.5,1.3L18,83.7c0,0.1,0,0.2-0.1,0.2c-0.1,0.3-0.2,0.6-0.4,0.9
	c-0.1,0.4-0.3,0.8-0.5,1.1c-0.1,0.1-0.2,0.1-0.2,0.1h-0.3c-0.1,0-0.1,0-0.1,0.1v0.1c0.1,0,0.1,0.1,0.2,0.1h1.3c0.1,0,0.2,0,0.2-0.1
	v-0.1c0,0,0-0.1-0.1-0.1h-0.4c0,0-0.1,0-0.1-0.1c0.1-0.4,0.3-0.8,0.4-1.2h1.5l0.1,0.4l0.2,0.7V86c-0.1,0.1-0.3,0.1-0.4,0.1
	c-0.3,0-0.4,0-0.4,0.1v0.1c0,0.1,0.1,0.1,0.2,0.1h2.1c0.1,0,0.2,0,0.2-0.1L21.5,86.2L21.5,86.2z M19.3,84.6H18
	c0.3-0.7,0.5-1.3,0.7-1.7L19.3,84.6z"/>
<path class="st0" d="M27.7,81.5C27.7,81.5,27.7,81.4,27.7,81.5l-1.5-0.1c-0.1,0-0.1,0-0.1,0.1v0.1c0.1,0.1,0.1,0.1,0.2,0.1h0.5
	c0,0.1,0,0.2,0,0.3v2.8l-2.5-3.5h-1.4c-0.1,0-0.1,0-0.1,0.1v0.1c0,0.1,0.1,0.1,0.3,0.1c0.2,0,0.4,0.1,0.5,0.2c0.1,0.3,0.1,0.7,0.1,1
	v2.8c0,0.1,0,0.2,0,0.3c-0.1,0.1-0.2,0.1-0.3,0.1h-0.2c-0.1,0-0.2,0-0.2,0.1v0.1c0,0.1,0.1,0.1,0.2,0.1c0.1,0,0.3,0,0.4,0h0.9
	c0.1,0,0.2,0,0.2-0.1v-0.1c0,0,0-0.1-0.1-0.1l0,0c-0.1,0-0.3,0-0.4,0c-0.1,0-0.1-0.1-0.1-0.4v-3.3c0.9,1.3,1.6,2.2,2,2.7l0.1,0.2
	c0.1,0.1,0.2,0.2,0.2,0.3c0.4,0.6,0.7,0.9,0.8,0.9s0.1,0,0.1-0.1s0-0.2,0-0.4v-4c0-0.1,0-0.2,0-0.3c0,0,0.1,0,0.1,0h0.3
	c0.1,0,0.2,0,0.2-0.1L27.7,81.5L27.7,81.5z"/>
<path class="st0" d="M39.8,86.2c0-0.1-0.1-0.1-0.3-0.1c-0.2,0-0.4,0-0.5-0.1c-0.1-0.1-0.2-0.2-0.2-0.3l-1.9-5.2
	c-0.3-0.9-0.5-1.5-0.6-1.8v-0.1c0,0-0.1,0-0.1,0.1V79c0,0.1-0.1,0.2-0.1,0.3c-0.6,1.6-1.3,3.7-2.2,6.4c0,0.1-0.1,0.3-0.2,0.3
	c-0.2,0.1-0.3,0.1-0.5,0.1c-0.2,0-0.3,0-0.3,0.1v0.1c0,0.1,0,0.1,0.2,0.1H33c0.1,0,0.2,0,0.3,0h1.5c0.3,0,0.3,0,0.3-0.1v-0.1
	c0-0.1-0.1-0.1-0.3-0.1h-0.5c-0.1,0-0.2,0-0.2-0.1c0,0,0,0,0,0c0.2-0.7,0.4-1.3,0.6-2h2.3c0.2,0.8,0.4,1.2,0.5,1.5l0.1,0.2l0.1,0.3
	l0,0c-0.3,0.1-0.6,0.2-0.9,0.1c-0.2,0-0.3,0-0.3,0.1v0.1c0,0.1,0.1,0.1,0.2,0.1h3.1C39.7,86.4,39.8,86.4,39.8,86.2L39.8,86.2z
	 M35.8,80.7l0.5,1.5c0.2,0.7,0.4,1.1,0.5,1.5h-2.1C35.1,82.5,35.5,81.5,35.8,80.7"/>
<path class="st0" d="M45.7,81.5C45.7,81.5,45.7,81.4,45.7,81.5l-1.5-0.1c-0.1,0-0.1,0-0.1,0.1v0.1c0.1,0.1,0.1,0.1,0.2,0.1h0.5
	c0,0.1,0,0.2,0,0.3v2.8l-2.5-3.5h-1.3c-0.1,0-0.1,0-0.1,0.1v0.1c0,0.1,0.1,0.1,0.3,0.1c0.2,0,0.4,0.1,0.5,0.2c0.1,0.3,0.1,0.7,0.1,1
	V86c0,0-0.1,0.1-0.3,0.1h-0.2c-0.1,0-0.2,0-0.2,0.1v0.1c0,0,0,0.1,0.2,0.1c0.1,0,0.3,0,0.4,0h0.8c0.2,0,0.2,0,0.2-0.1v-0.1
	c0,0,0-0.1-0.1-0.1l0,0c-0.1,0-0.3,0-0.4,0c-0.1,0-0.1-0.2-0.1-0.4v-3.3c0.9,1.3,1.6,2.2,1.9,2.7l0.1,0.2c0.1,0.1,0.2,0.2,0.2,0.3
	c0.4,0.6,0.7,0.9,0.8,0.9s0.1,0,0.1-0.1c0-0.1,0-0.3,0-0.4v-4c0-0.1,0-0.2,0-0.3h0.4c0.2,0,0.2,0,0.2-0.1L45.7,81.5L45.7,81.5z"/>
<path class="st0" d="M51.8,82.6v-1.2h-4.1c-0.1,0.6-0.1,1-0.1,1.2v0.1c0,0.2,0,0.2,0.1,0.2c0.1,0,0.1-0.1,0.1-0.2
	c0-0.3,0.1-0.6,0.3-0.9c0.3-0.2,0.7-0.2,1.1-0.2V86c0,0.1,0,0.1-0.1,0.1c-0.1,0-0.1,0-0.2,0c-0.2,0-0.3,0-0.3,0.1v0.1
	c0.1,0,0.1,0.1,0.2,0.1h1.8c0.1,0,0.2,0,0.2-0.1v-0.1c-0.1-0.1-0.2-0.1-0.3-0.1c-0.2,0-0.3-0.1-0.3-0.2v-4.2h0.3
	c0.5,0,0.8,0.1,0.9,0.4c0.1,0.2,0.2,0.4,0.2,0.7c0,0.1,0.1,0.2,0.2,0.2s0.1,0,0.1-0.2v-0.1l0,0v-0.1"/>
<path class="st0" d="M57.9,82.1c-0.4-0.5-1-0.7-1.7-0.7c-0.7,0-1.3,0.2-1.8,0.7c-0.5,0.5-0.7,1.1-0.7,1.8V84c0,0.7,0.2,1.3,0.7,1.8
	c0.5,0.5,1.1,0.7,1.8,0.7c0.6,0,1.2-0.3,1.7-0.7c0.5-0.5,0.7-1.1,0.7-1.8v-0.1C58.6,83.2,58.3,82.6,57.9,82.1 M56.2,86.2
	c-0.4,0-0.9-0.2-1.1-0.6c-0.3-0.5-0.4-1-0.4-1.6c0-0.5,0.1-1,0.2-1.5c0.1-0.5,0.6-0.9,1.1-0.8c0.4,0,0.7,0.2,0.9,0.5
	c0.4,0.6,0.5,1.2,0.5,1.9C57.5,85.5,57.1,86.2,56.2,86.2"/>
<path class="st0" d="M65.3,81.5C65.3,81.5,65.3,81.4,65.3,81.5l-1.5-0.1c-0.1,0-0.1,0-0.1,0.1v0.1c0.1,0.1,0.1,0.1,0.2,0.1h0.5
	c0,0.1,0,0.2,0,0.3v2.8l-2.5-3.5h-1.3c-0.1,0-0.1,0-0.1,0.1v0.1c0,0.1,0.1,0.1,0.3,0.1c0.2,0,0.4,0.1,0.5,0.2c0.1,0.3,0.1,0.7,0.1,1
	v2.8c0,0.1,0,0.2,0,0.3c-0.1,0.1-0.2,0.1-0.3,0.1h-0.2c-0.1,0-0.2,0-0.2,0.1v0.1c0,0.1,0.1,0.1,0.2,0.1c0.1,0,0.3,0,0.4,0H62
	c0.2,0,0.2,0,0.2-0.1v-0.1c0,0-0.1-0.1-0.1-0.1l0,0c-0.1,0-0.3,0-0.4,0c-0.1,0-0.1-0.2-0.1-0.4v-3.3c0.9,1.3,1.6,2.2,1.9,2.7
	c0,0,0.1,0.1,0.1,0.2c0.1,0.1,0.2,0.2,0.2,0.3c0.4,0.6,0.7,0.9,0.8,0.9s0.1,0,0.1-0.1c0-0.1,0-0.3,0-0.4v-4c0-0.1,0-0.2,0-0.3h0.4
	c0.2,0,0.2,0,0.2-0.1L65.3,81.5L65.3,81.5z"/>
<path class="st0" d="M69.3,86.2c0,0,0-0.1-0.1-0.1c-0.1,0-0.3,0-0.4,0c-0.1,0-0.1-0.1-0.1-0.2v-4c0-0.1,0-0.2,0-0.3
	c0.1,0,0.1-0.1,0.2-0.1c0.2,0,0.4,0,0.4-0.1v-0.1c0-0.1-0.1-0.1-0.2-0.1h-1.7c-0.1,0-0.1,0-0.1,0.1v0.1c0,0,0,0.1,0.1,0.1
	c0,0,0,0,0,0h0.3c0.1,0,0.1,0,0.2,0.1c0,0.2,0,0.3,0,0.5v3.3c0,0.2,0,0.3,0,0.5c-0.1,0-0.2,0.1-0.3,0.1c-0.2,0-0.2,0-0.2,0.1v0.1
	c0.1,0,0.1,0.1,0.2,0.1h1.8C69.3,86.4,69.3,86.4,69.3,86.2L69.3,86.2L69.3,86.2z"/>
<path class="st0" d="M75.5,82.1c-0.4-0.5-1-0.7-1.7-0.7c-0.7,0-1.3,0.2-1.7,0.7c-0.5,0.5-0.7,1.1-0.7,1.8V84c0,0.7,0.2,1.3,0.7,1.8
	c0.5,0.5,1.1,0.7,1.8,0.7c0.6,0,1.2-0.3,1.7-0.7c0.5-0.5,0.7-1.1,0.7-1.8v-0.1C76.2,83.2,75.9,82.6,75.5,82.1 M73.8,86.2
	c-0.4,0-0.9-0.2-1.1-0.6c-0.3-0.5-0.4-1-0.4-1.6c0-0.5,0.1-1,0.2-1.5c0.1-0.5,0.6-0.9,1.1-0.8c0.4,0,0.7,0.2,0.9,0.5
	c0.4,0.6,0.5,1.2,0.5,1.9C75.1,85.5,74.7,86.3,73.8,86.2"/>
<path class="st0" d="M86.3,82.4c-0.3-0.4-0.7-0.7-1.2-0.8c-0.7-0.1-1.3-0.2-2-0.2h-1.2c-0.1,0-0.2,0-0.2,0.1v0.1
	c0.1,0,0.1,0.1,0.2,0.1c0.1,0,0.3,0,0.4,0.1c0,0.2,0,0.4,0,0.5v3.3c0,0.1,0,0.2,0,0.4c0,0.1-0.1,0.1-0.2,0.1h-0.2
	c-0.1,0-0.1,0-0.1,0.1v0.1c0,0.1,0.1,0.1,0.2,0.1h2.1c0.6,0,1.3-0.1,1.8-0.5c0.7-0.4,1-1.2,1-2v-0.1C86.7,83.3,86.6,82.8,86.3,82.4
	 M83.8,86.1c-0.2,0-0.3,0-0.5,0c-0.1,0-0.1-0.1-0.1-0.2v-3.7c0-0.1,0-0.3,0.1-0.4c0.2-0.1,0.4-0.1,0.6-0.1c1.2,0,1.8,0.7,1.8,2.2
	C85.7,85.4,85.1,86.1,83.8,86.1"/>
<path class="st0" d="M92.7,84.8c-0.1,0-0.1,0.1-0.1,0.2c0,0.6-0.2,1-0.5,1c-0.6,0.1-1.2,0.1-1.8,0.1v-2.2h0.3c0.3,0,0.6,0,0.8,0.1
	c0.1,0.1,0.2,0.3,0.2,0.7c0,0.2,0.1,0.3,0.1,0.3s0.1-0.1,0.1-0.2v-0.3c0-0.3,0-0.6,0-0.8v-0.8l0,0v-0.1c0,0,0-0.2-0.1-0.2
	s-0.1,0.1-0.1,0.3c0,0.2-0.1,0.4-0.2,0.6c-0.3,0.1-0.6,0.1-0.8,0.1h-0.3v-1.9h0.6c0.4,0,0.7,0,1.1,0.1c0.3,0.1,0.5,0.4,0.6,1
	c0,0.2,0.1,0.2,0.1,0.2s0.1,0,0.1-0.1v-0.2l-0.1-1v-0.2h-3.7c-0.1,0-0.1,0-0.1,0.1v0.1c0,0,0,0.1,0.1,0.1c0.1,0,0.2,0,0.4,0
	c0.1,0.1,0.1,0.3,0.1,0.5v3.6c0,0.2,0,0.3-0.1,0.3c-0.1,0-0.3,0-0.4,0c-0.1,0-0.1,0-0.1,0.1v0.1c0,0.1,0.1,0.1,0.2,0.1h3.8
	c0-0.1,0-0.2,0-0.3v-0.9l0,0C92.8,84.9,92.8,84.8,92.7,84.8"/>
<path class="st0" d="M104.9,86.2c0-0.1-0.1-0.1-0.3-0.1c-0.2,0-0.4,0-0.6-0.1c-0.1-0.1-0.2-0.2-0.2-0.3l-1.9-5.2
	c-0.3-0.9-0.5-1.5-0.6-1.8v-0.1c0,0-0.1,0-0.1,0.1V79c0,0.1-0.1,0.2-0.1,0.3c-0.6,1.6-1.3,3.7-2.2,6.4c0,0.1-0.1,0.3-0.2,0.3
	c-0.2,0.1-0.3,0.1-0.5,0.1c-0.2,0-0.3,0-0.3,0.1v0.1c0,0.1,0,0.1,0.2,0.1h0.1c0.1,0,0.2,0,0.3,0h1.5c0.3,0,0.3,0,0.3-0.1v-0.1
	c0-0.1-0.1-0.1-0.3-0.1h-0.5c-0.1,0-0.1-0.1-0.1-0.1c0.1-0.7,0.3-1.3,0.5-2h2.3c0.2,0.8,0.4,1.2,0.5,1.5l0.1,0.2l0.1,0.3l0,0
	c-0.3,0.1-0.6,0.2-0.9,0.1c-0.2,0-0.3,0-0.3,0.1v0.1c0,0.1,0.1,0.1,0.2,0.1h3.1C104.9,86.4,104.9,86.4,104.9,86.2L104.9,86.2
	L104.9,86.2z M100.9,80.7l0.5,1.5c0.2,0.7,0.4,1.1,0.5,1.5h-2.1C100.3,82.5,100.6,81.5,100.9,80.7"/>
<path class="st0" d="M110.4,85.8c-0.2,0-0.2,0.1-0.2,0.2l0,0c0,0,0,0.1,0,0.1l0,0c-0.2,0-0.3-0.2-0.4-0.7c0-0.5-0.2-0.9-0.4-1.3
	c-0.2-0.2-0.5-0.3-0.8-0.4c0.3,0,0.6-0.2,0.8-0.3c0.3-0.2,0.5-0.5,0.5-0.8v-0.1c0-0.3-0.2-0.6-0.4-0.8c-0.3-0.2-0.8-0.3-1.2-0.3h-2
	c-0.1,0-0.2,0-0.2,0.1v0.1c0,0,0.1,0.1,0.3,0.1c0.1,0,0.2,0,0.3,0c0,0,0.1,0.1,0.1,0.2V86c0,0.1-0.1,0.2-0.4,0.2h-0.2
	c-0.1,0-0.1,0-0.1,0.1v0.1c0.1,0.1,0.2,0.1,0.3,0.1h1.7c0.1,0,0.2,0,0.2-0.1v-0.1c0,0,0-0.1-0.1-0.1c-0.4,0-0.6-0.1-0.5-0.2v-2.1
	c0.3,0,0.6,0.1,0.8,0.2c0.2,0.2,0.3,0.4,0.3,0.6c0,0.3,0.1,0.6,0.1,0.9c0.2,0.5,0.6,0.8,1.2,0.8c0.4,0,0.6-0.1,0.6-0.3V86
	C110.7,85.9,110.6,85.8,110.4,85.8L110.4,85.8 M107.8,81.8c0.1,0,0.2,0,0.3,0c0.5-0.1,0.9,0.3,0.9,0.7v0.2c0,0.7-0.4,1-1.3,1V82
	C107.7,81.9,107.7,81.8,107.8,81.8"/>
<path class="st0" d="M116.3,84.8c-0.1,0-0.1,0.1-0.1,0.2c0,0.6-0.2,1-0.5,1c-0.6,0.1-1.2,0.1-1.8,0.1v-2.2h0.3c0.3,0,0.6,0,0.8,0.1
	c0.1,0.1,0.2,0.3,0.2,0.7c0,0.2,0.1,0.3,0.1,0.3s0.1-0.1,0.1-0.2v-0.1l0,0v-1.9c0-0.1,0-0.2-0.1-0.2s-0.1,0.1-0.1,0.3
	c0,0.2-0.1,0.4-0.2,0.6c-0.3,0.1-0.6,0.1-0.8,0.1h-0.3v-1.9h0.6c0.4,0,0.7,0,1.1,0.1c0.3,0.1,0.5,0.4,0.6,1c0,0.2,0.1,0.2,0.1,0.2
	s0.1,0,0.1-0.1v-0.3l-0.1-1v-0.2h-3.7c-0.1,0-0.1,0-0.1,0.1v0.1c0,0,0,0.1,0.1,0.1c0.1,0,0.2,0,0.4,0c0,0,0.1,0.2,0.1,0.5v3.6
	c0,0.2,0,0.3-0.1,0.3c-0.1,0-0.3,0-0.4,0c-0.1,0-0.1,0-0.1,0.1v0.1c0,0.1,0.1,0.1,0.2,0.1h3.8c0-0.1,0-0.2,0-0.3v-0.9l0,0
	C116.5,84.9,116.5,84.8,116.3,84.8"/>
<path class="st0" d="M122.6,84.5c-0.1,0-0.1,0.1-0.1,0.3c-0.1,0.4-0.2,0.7-0.5,1c-0.2,0.2-0.6,0.4-0.9,0.4c-0.5,0-0.9-0.2-1.2-0.6
	c-0.3-0.5-0.4-1.1-0.4-1.7c0-0.6,0.1-1.1,0.4-1.6c0.4-0.6,1.1-0.8,1.7-0.4c0.2,0.1,0.3,0.3,0.4,0.4c0.1,0.3,0.2,0.6,0.3,0.9
	c0,0.1,0.1,0.2,0.1,0.2s0.1-0.2,0.1-0.4c0-0.4,0-0.7,0.1-1.1v-0.2c0-0.1,0-0.1-0.1-0.1s-0.1,0.1-0.2,0.2s-0.1,0.1-0.1,0.1
	c0,0-0.1,0-0.1,0c-0.4-0.3-0.9-0.4-1.3-0.4c-0.6,0-1.3,0.2-1.7,0.7c-0.5,0.5-0.7,1.1-0.7,1.8V84c0,0.7,0.2,1.3,0.7,1.8
	c0.5,0.5,1.1,0.8,1.8,0.7c0.5,0,1-0.1,1.3-0.5v0.1l0.1,0.2c0.1,0.1,0.1,0.2,0.2,0.2c0.1,0,0.1,0,0.1-0.1v-0.2c0-0.1,0-0.3,0-0.4
	v-1.1C122.6,84.6,122.6,84.5,122.6,84.5"/>
<path class="st0" d="M129.6,83.9c0-0.7-0.2-1.3-0.7-1.8c-0.4-0.5-1-0.7-1.7-0.7c-0.7,0-1.3,0.2-1.7,0.7c-0.5,0.5-0.7,1.1-0.7,1.8V84
	c0,0.7,0.2,1.3,0.7,1.8c0.5,0.5,1.1,0.7,1.8,0.7c0.6,0,1.2-0.3,1.6-0.7c0.4-0.5,0.7-1.1,0.7-1.8L129.6,83.9 M127.3,86.3
	c-0.4,0-0.9-0.2-1.1-0.6c-0.3-0.5-0.4-1.1-0.4-1.7c0-0.5,0.1-1,0.2-1.5c0.1-0.5,0.6-0.8,1.1-0.8c0.4,0,0.7,0.2,0.9,0.5
	c0.4,0.6,0.5,1.2,0.5,1.9C128.6,85.5,128.2,86.3,127.3,86.3"/>
<path class="st0" d="M13,69.5c0,0.1,0,0.4-0.1,1.1s0,1.3,0,1.9v0.7c-1.4-0.1-4.3-0.1-8.5-0.1H1.6c-0.3,0-0.4-0.1-0.4-0.2
	s0-0.1,0.1-0.1l0.8-0.1c0.4,0,0.6-0.1,0.7-0.2C3,72.1,3,71.8,3,71.4V59c0-0.4-0.1-0.7-0.2-0.8c-0.4-0.1-0.8-0.2-1.2-0.1
	c-0.2,0-0.4-0.1-0.4-0.2s0.2-0.2,0.5-0.2h9.3c0.4,0,0.8,0,1.2-0.1c0,0.6,0.1,1.5,0.2,2.6l0.1,1c0,0.1,0,0.2,0,0.3
	c0,0.2-0.1,0.2-0.2,0.2s-0.3-0.2-0.4-0.5c-0.1-1-0.6-1.9-1.4-2.5c-1.2-0.3-2.4-0.5-3.6-0.4H5.2v6.4h0.5c1,0.1,2,0,3-0.4
	c0.4-0.2,0.6-1,0.7-2.2c0-0.3,0.1-0.5,0.2-0.5s0.2,0.1,0.2,0.4c0,0.4,0,0.8-0.1,1.2c0,0.4,0,0.8,0,1.2c0,1.6,0,2.6,0.1,3.2v0.4
	c0,0.1-0.1,0.3-0.2,0.3s-0.2-0.1-0.2-0.2c-0.1-0.4-0.1-0.8-0.2-1.2c0-0.7-0.4-1.3-1.1-1.6c-0.7-0.1-1.4-0.2-2.1-0.1h-1v7.3
	c1.9,0.1,3.8,0,5.7-0.2c1-0.2,1.5-1.1,1.6-2.8c0-0.4,0.1-0.5,0.3-0.5S13,69.2,13,69.5"/>
<path class="st0" d="M25.4,71.1v2.1h-8.1c-0.2,0-0.3-0.1-0.3-0.2s0.3-0.1,0.9-0.2c0.1,0,0.2,0,0.3-0.1c0.1-0.2,0.1-0.3,0.1-0.5v-7.4
	c0-0.8-0.1-1.3-0.2-1.3c-0.1,0-0.3,0-0.4,0h-0.4c-0.2,0-0.2-0.1-0.2-0.2c0-0.1,0.1-0.2,0.3-0.2h3.5c0.3,0,0.4,0.1,0.4,0.2
	c0,0.1-0.2,0.1-0.7,0.2c-0.2,0-0.4,0.1-0.4,0.2c-0.1,0.3-0.1,0.6-0.1,0.9v8.2h1.3c1,0.1,2,0,2.9-0.5c0.4-0.4,0.6-1,0.6-1.6
	c0-0.3,0.1-0.5,0.2-0.5S25.4,70.5,25.4,71.1"/>
<path class="st0" d="M48.3,61.7c0,0.2-0.1,0.3-0.3,0.3s-0.3-0.2-0.4-0.6l-0.1-0.8c-0.1-0.5-0.3-0.9-0.5-1.3
	c-0.3-0.5-0.9-0.8-1.5-0.9c-0.4-0.1-0.7-0.1-1.1-0.1h-1.3v13.3c0,0.5,0.1,0.8,0.4,1c0.4,0.1,0.8,0.2,1.2,0.1c0.2,0,0.3,0.1,0.3,0.2
	c0,0.1-0.1,0.2-0.3,0.2h-0.3L42.6,73h-3c-0.3,0-0.5-0.1-0.5-0.2s0.3-0.2,0.9-0.2c0.5,0,0.8-0.1,0.9-0.3c0.1-0.3,0.1-0.6,0.1-0.9
	V58.3c-0.9,0-1.8,0-2.7,0.2c-0.9,0.3-1.5,1.2-1.6,2.7c0,0.4-0.1,0.7-0.3,0.7c-0.2,0-0.3-0.2-0.3-0.5V61v-0.5c0-0.7,0.1-1.6,0.2-2.7
	h1l4.5,0.1h2.5l3.7-0.1c0,0.8,0.1,2,0.3,3.6L48.3,61.7"/>
<path class="st0" d="M61.4,72.5c0,0.5-0.4,0.7-1.2,0.7c-0.7,0-1.5-0.3-1.9-0.9c-0.2-0.2-0.4-0.5-0.4-0.8c-0.1-0.6-0.2-1.2-0.3-1.9
	c0-0.5-0.2-1-0.6-1.3c-0.5-0.3-1.1-0.4-1.7-0.4v4.5c0,0.2,0.3,0.3,1.1,0.3c0.2,0,0.2,0.1,0.2,0.2c0,0.1-0.1,0.2-0.3,0.2h-3.5
	c-0.4,0-0.6,0-0.6-0.2s0.1-0.2,0.2-0.2h0.3c0.5,0,0.8-0.1,0.8-0.3v-8.7c0-0.1,0-0.2-0.1-0.3c-0.2-0.1-0.4-0.1-0.6-0.1
	c-0.3,0-0.5-0.1-0.5-0.2s0.1-0.2,0.3-0.2h4.2c0.8,0,1.7,0.2,2.4,0.6c0.6,0.3,0.9,0.9,0.9,1.6c0,0.7-0.3,1.4-0.9,1.8
	c-0.8,0.5-1.7,0.8-2.7,0.8c0.9,0,1.8,0.4,2.5,1c0.6,0.8,0.9,1.8,0.9,2.8c0.1,0.9,0.4,1.3,0.8,1.3c0.1,0,0.1,0,0.1-0.1
	c0,0,0-0.1,0-0.1c0-0.1,0-0.1-0.1-0.2c0-0.3,0.2-0.4,0.4-0.4C61.2,72.1,61.4,72.2,61.4,72.5C61.5,72.5,61.5,72.5,61.4,72.5 M58,65.4
	c0.2-0.9-0.5-1.8-1.4-2c0,0,0,0,0,0c-0.2,0-0.4,0-0.5,0c-0.2,0-0.4,0-0.6,0.1c-0.1,0.1-0.1,0.2-0.1,0.5v3.6
	C57.1,67.5,58,66.8,58,65.4"/>
<path class="st0" d="M74.8,68.1c0,1.3-0.5,2.6-1.4,3.6c-0.9,1-2.1,1.5-3.4,1.5c-1.4,0-2.7-0.5-3.6-1.5c-1.9-2.1-1.9-5.3-0.1-7.4
	c0.9-1,2.2-1.5,3.6-1.4c1.3,0,2.6,0.5,3.5,1.5C74.4,65.4,74.9,66.7,74.8,68.1 M72.8,68.2c0.1-1.4-0.3-2.8-1-4
	c-0.4-0.6-1.1-1-1.8-0.9c-1.1,0-2.1,0.7-2.4,1.8c-0.4,1-0.5,2.1-0.5,3.1c-0.1,1.2,0.2,2.4,0.8,3.5c0.4,0.8,1.3,1.3,2.2,1.3
	C71.9,72.9,72.8,71.3,72.8,68.2"/>
<path class="st0" d="M86.7,65.5c0,0.8-0.4,1.5-1,1.9c-0.8,0.5-1.7,0.8-2.6,0.7c-0.2,0-0.4,0-0.9-0.1h-0.1v4c0,0.4,0.1,0.6,0.3,0.7
	c0.3,0,0.6,0,0.8,0c0.2,0,0.2,0,0.2,0.2S83.3,73,83.2,73s-0.8,0-1.8,0h-2.2c-0.2,0-0.3,0-0.3-0.1s0.1-0.2,0.2-0.1h0.3l0.6-0.1
	c0.1,0,0.1,0,0.1-0.1c0-0.2,0-0.5,0-0.8v-7.4c0-0.3,0-0.6,0-0.9c0-0.1-0.3-0.2-0.7-0.2h-0.3c-0.2,0-0.2-0.1-0.2-0.2s0.1-0.1,0.2-0.1
	h1.7c1.2,0,2.3,0,3.4,0.1C85.9,63.5,86.7,64.2,86.7,65.5 M84.8,65.5c0-1.4-0.6-2.1-1.9-2.1c-0.2,0-0.5,0-0.7,0.1
	c-0.1,0.1-0.1,0.2-0.1,0.5v3.8C83.9,67.8,84.8,67,84.8,65.5"/>
<path class="st0" d="M98.9,70.7V71c0,0.1,0,0.3,0,0.4v1.3c0,0.1,0,0.3,0.1,0.4l-3.7-0.1l-4.2,0.1c-0.3,0-0.5-0.1-0.5-0.2
	s0.1-0.2,0.3-0.2c0.3,0,0.6,0,0.8-0.1c0.1-0.1,0.1-0.3,0.1-0.7v-7.6c0-0.6,0-0.9-0.2-1c-0.3-0.1-0.5-0.1-0.8-0.1
	c-0.2,0-0.3,0-0.3-0.2S90.8,63,91,63h7.5v0.5c0,0.2,0.1,0.9,0.2,1.9c0,0.1,0,0.2,0,0.3c0,0.2,0,0.3-0.2,0.3s-0.2-0.1-0.3-0.4
	c-0.2-1.1-0.6-1.8-1.2-2c-0.7-0.1-1.5-0.2-2.3-0.2h-1.1v4.1h0.5c0.6,0.1,1.2,0,1.7-0.2c0.2-0.2,0.4-0.6,0.4-1.3
	c0-0.4,0.1-0.6,0.3-0.6s0.2,0.1,0.2,0.4v3.9c0,0.2-0.1,0.3-0.2,0.3s-0.2-0.2-0.3-0.6c-0.1-0.8-0.2-1.3-0.4-1.4
	c-0.5-0.2-1.1-0.3-1.7-0.2h-0.6v4.7c1.3,0,2.5,0,3.8-0.2c0.6-0.2,0.9-0.9,1-2.1c0-0.2,0.1-0.3,0.2-0.3C98.8,70,98.9,70.2,98.9,70.7"
	/>
<path class="st0" d="M110.8,69.7c-0.1,0.3-0.1,0.6-0.1,0.8l-0.1,0.9c0,0.3-0.1,0.6-0.2,0.9c0,0.2-0.1,0.5-0.1,0.7h-7.1
	c-0.2,0-0.3,0-0.3-0.1c0-0.1,0-0.1,0.1-0.2l0.1-0.2c0.6-1.1,1.8-3.2,3.6-6.3c0.8-1.3,1.3-2.3,1.7-2.9c-0.5,0-0.9-0.1-1.4-0.1
	c-1.4,0-2.2,0.3-2.5,0.8c-0.3,0.6-0.5,1.2-0.6,1.9c0,0.2-0.1,0.4-0.3,0.4s-0.2-0.1-0.2-0.2c0-0.1,0-0.1,0-0.2l0.1-0.7
	c0-0.3,0.1-0.5,0.1-0.7l0.1-0.6c0.1-0.3,0.1-0.6,0.2-0.8c0.8,0,1.8,0.1,2.8,0.1h3.5c-0.4,0.9-0.8,1.8-1.4,2.6l-3.6,6.2
	c-0.1,0.2-0.2,0.4-0.4,0.8h1.8c0.9,0.1,1.8-0.1,2.6-0.5c0.6-0.7,0.9-1.5,1-2.4c0-0.1,0.1-0.3,0.2-0.3c0,0,0,0,0,0
	C110.8,69.4,110.9,69.5,110.8,69.7"/>
<path class="st0" d="M124.8,68.1c0,1.3-0.5,2.6-1.4,3.6c-0.9,1-2.1,1.5-3.4,1.5c-1.4,0-2.7-0.5-3.6-1.5c-1.9-2.1-1.9-5.3-0.1-7.4
	c0.9-1,2.2-1.5,3.6-1.4c1.3,0,2.6,0.5,3.5,1.5C124.3,65.4,124.8,66.7,124.8,68.1 M122.7,68.2c0.1-1.4-0.3-2.8-1-4
	c-0.4-0.6-1.1-1-1.8-0.9c-1.1,0-2,0.7-2.3,1.8c-0.4,1-0.5,2.1-0.5,3.1c-0.1,1.2,0.2,2.4,0.8,3.5c0.4,0.8,1.3,1.3,2.2,1.2
	C121.8,72.9,122.7,71.3,122.7,68.2 M122.8,58.4l-2,2.1c-0.9,0.9-1.4,1.4-1.5,1.4s-0.1,0-0.1-0.1v-0.1l0.1-0.3
	c0.1-0.3,0.3-0.8,0.6-1.4l0.7-1.5C120.5,58.4,122.8,58.4,122.8,58.4z"/>
<path class="st0" d="M138.6,63.2c0,0.1-0.2,0.2-0.5,0.2h-0.6c-0.1,0-0.2,0-0.2,0.1c0,0.2,0,0.4,0,0.6v9c0,0.1-0.1,0.1-0.2,0.1
	c-0.6-0.5-1.1-1.1-1.6-1.8c-0.1-0.2-0.3-0.4-0.5-0.7l-0.2-0.3c-0.7-1-2.1-2.8-4-5.5v7c0,0.5,0.1,0.8,0.2,0.9c0.3,0,0.6,0,0.8,0h0.1
	c0.2,0,0.3,0,0.3,0.1s-0.2,0.2-0.5,0.2h-1.3l-0.5,0c-0.3,0-0.6,0-0.9,0c-0.2,0-0.4-0.1-0.4-0.2s0.1-0.1,0.4-0.1h0.5
	c0.4,0,0.5-0.1,0.6-0.2c0-0.2,0-0.4,0-0.6v-6c0.1-0.7,0-1.4-0.2-2c-0.2-0.3-0.6-0.5-1-0.5c-0.4,0-0.6-0.1-0.6-0.2s0.1-0.2,0.3-0.2
	h2.8l5.2,7.1v-6.1c0-0.2,0-0.4,0-0.6c0-0.1-0.1-0.1-0.4-0.1h-0.6c-0.3,0-0.4,0-0.4-0.2s0.1-0.1,0.2-0.1s0.6,0,1.5,0h1.4
	C138.6,63.1,138.6,63.1,138.6,63.2"/>
<path class="st0" d="M20.4,52.3H1.9V20.1h18.5V52.3z M2.6,51.6h17.1V20.9H2.6V51.6z"/>
<path class="st0" d="M20.4,18.7H1.9V4.2h18.5V18.7z M2.6,18h17.1V4.9H2.6V18z"/>
<path class="st0" d="M21.4,4.9H0.9V2.1h20.5V4.9z M1.6,4.2h19.1V2.8H1.6V4.2z"/>
<path class="st0" d="M21.4,20.9H0.9V18h20.5V20.9z M1.6,20.1h19.1v-1.4H1.6L1.6,20.1z"/>
<path class="st0" d="M22.3,2.8H0V0h22.3V2.8z M0.7,2.1h20.9V0.7H0.7V2.1z"/>
<path class="st0" d="M138,52.3h-18.6V20.1H138V52.3z M120.2,51.6h17.1V20.9h-17.2L120.2,51.6z"/>
<path class="st0" d="M138,18.7h-18.6V4.2H138V18.7z M120.1,18h17.1V4.9h-17.1V18z"/>
<path class="st0" d="M139,4.9h-20.5V2.1H139V4.9z M119.2,4.2h19.1V2.8h-19.1L119.2,4.2z"/>
<path class="st0" d="M139,20.9h-20.5V18H139V20.9z M119.2,20.1h19.1v-1.4h-19.1L119.2,20.1z"/>
<path class="st0" d="M139.8,2.8h-22.2V0h22.2V2.8z M118.3,2.1h20.9V0.7h-20.9L118.3,2.1z"/>
<path class="st0" d="M69.6,52.3h-2.8v-1H19.7V33.1h47.1V32h2.8L69.6,52.3z M67.5,51.6h1.4V32.7h-1.4v1.1H20.4v16.9h47.1V51.6z
	 M67.5,49.4H45.2V35h22.2V49.4z M45.9,48.7h20.8v-13H45.9V48.7z M44,49.4H21.8V35H44L44,49.4z M22.5,48.7h20.8v-13H22.5V48.7z"/>
<path class="st0" d="M94.6,49.4h-2.1l-9-5.7l-9.3,5.7h-1.8v-2l8.6-5.3l-8.6-5.4V35h2.2l8.9,5.6l9.2-5.6h1.9v2L86,42.2l8.6,5.4
	L94.6,49.4L94.6,49.4z M92.7,48.7h1.2v-0.8l-9.2-5.8l9.2-5.6v-0.9h-1l-9.4,5.7l-9.1-5.7H73v0.7l9.2,5.8L73,47.8v0.9h0.9l9.5-5.8
	L92.7,48.7z"/>
<path class="st0" d="M118,49.5h-2.1l-9-5.7l-9.3,5.7h-1.8v-2l8.6-5.3l-8.6-5.4V35H98l8.9,5.6l9.2-5.6h1.9v2l-8.6,5.2l8.6,5.4V49.5z
	 M116.1,48.8h1.2V48l-9.2-5.8l9.2-5.6v-0.9h-1l-9.4,5.7l-9.1-5.7h-1.3v0.7l9.2,5.7l-9.2,5.7v0.9h0.9l9.5-5.8L116.1,48.8z"/>
<path class="st0" d="M44,49.4h-2.1l-9-5.7l-9.3,5.7h-1.8v-2l8.6-5.3l-8.6-5.4V35H24l8.9,5.6l9.2-5.6H44v2l-8.6,5.2l8.6,5.3V49.4z
	 M42.1,48.7h1.2v-0.8l-9.2-5.8l9.2-5.6v-0.9h-1l-9.4,5.7l-9.1-5.7h-1.3v0.7l9.2,5.8l-9.2,5.7v0.9h0.9l9.5-5.8L42.1,48.7z"/>
<path class="st0" d="M67.5,49.4h-2.1l-9-5.7L47,49.4h-1.8v-2l8.6-5.3l-8.6-5.4V35h2.2l8.9,5.6l9.2-5.6h1.9v2l-8.6,5.2l8.6,5.4V49.4z
	 M65.6,48.7h1.2v-0.8l-9.2-5.8l9.2-5.6v-0.9h-1l-9.4,5.7l-9.1-5.7h-1.4v0.7l9.2,5.8l-9.2,5.7v0.9h0.9l9.5-5.8L65.6,48.7z"/>
<path class="st0" d="M73,52.3h-2.8V32H73v1.1h47.1v18.3H73V52.3z M70.9,51.6h1.4v-1h47.1V33.8H72.3v-1.1h-1.4L70.9,51.6z"/>
<line class="st1" x1="20" y1="12.8" x2="63.5" y2="33.4"/>
<rect x="41.4" y="-0.9" transform="matrix(0.4285 -0.9036 0.9036 0.4285 2.9624 50.9348)" class="st0" width="0.7" height="48.1"/>
<line class="st1" x1="119.8" y1="12.8" x2="77" y2="33.4"/>
<rect x="74.7" y="22.8" transform="matrix(0.9013 -0.4332 0.4332 0.9013 -0.3081 44.9015)" class="st0" width="47.5" height="0.7"/>
<path class="st0" d="M94.6,49.4H72.3V35h22.2V49.4z M73,48.7h20.9v-13H73V48.7z"/>
<path class="st0" d="M118,49.5H95.8V35H118V49.5z M96.5,48.8h20.8v-13H96.5L96.5,48.8z"/>
</svg>