<svg id="Layer_1" data-name="Layer 1" xmlns="http://www.w3.org/2000/svg" viewBox="0 0 139.83 86.58"><defs><style>.cls-1{fill:#b55d13;}</style></defs><path class="cls-1" d="M14.27,83a4.59,4.59,0,0,0-1.45-1,5.56,5.56,0,0,1-1.11-.67,1.4,1.4,0,0,1-.46-1,1.29,1.29,0,0,1,.31-.88,1.11,1.11,0,0,1,.85-.35,1.36,1.36,0,0,1,1,.43,1.86,1.86,0,0,1,.56,1c0,.17.08.25.16.25s.1,0,.1-.12v-.07a.11.11,0,0,0,0-.06v-.17a4.76,4.76,0,0,1-.06-.76,4.44,4.44,0,0,1,0-.55.45.45,0,0,0,0-.13v-.13c0-.08,0-.13-.1-.13a.11.11,0,0,0-.12.11.51.51,0,0,1-.07.23.22.22,0,0,1-.16,0,1,1,0,0,1-.33-.09,3.1,3.1,0,0,0-1-.24,1.94,1.94,0,0,0-1.45.58,2,2,0,0,0-.58,1.47s0,0,0,0,0,.06,0,.09a1.8,1.8,0,0,0,.4,1.17,4.53,4.53,0,0,0,1.42,1,3.71,3.71,0,0,1,1.2.85,1.58,1.58,0,0,1,.34,1,1.4,1.4,0,0,1-.36,1,1.32,1.32,0,0,1-1,.37c-1,0-1.63-.64-1.81-1.93,0-.18-.08-.26-.15-.26s-.13,0-.13.16v.13a.81.81,0,0,0,0,.17c0,.24,0,.41,0,.52a8.07,8.07,0,0,1-.09,1.16s0,.08,0,.13,0,0,0,0,0,.06,0,.09,0,.13.11.13.13,0,.14-.15.08-.3.16-.3a.79.79,0,0,1,.32.1,3.49,3.49,0,0,0,1.39.35A2.41,2.41,0,0,0,14,85.92a2.07,2.07,0,0,0,.7-1.58v-.13A1.78,1.78,0,0,0,14.27,83"/><path class="cls-1" d="M21.55,86.25c0-.06-.07-.09-.21-.1l-.34,0c-.08,0-.16-.13-.25-.35-.89-2.24-1.45-3.62-1.66-4.15-.07-.2-.12-.3-.14-.3s-.09.06-.13.16l-.07.2-.17.45c-.22.59-.39,1-.51,1.33a2,2,0,0,0-.09.23,2.2,2.2,0,0,1-.08.23c-.12.27-.24.58-.36.9A7.4,7.4,0,0,1,17,86a.38.38,0,0,1-.24.1l-.26,0c-.09,0-.14,0-.14.09v.13s.06.06.18.06h.13l.1,0h.1l.61,0h.39c.15,0,.22,0,.22-.07v-.13s0-.07-.13-.07l-.09,0h-.31a.11.11,0,0,1-.11-.06,10.21,10.21,0,0,1,.43-1.19h1.53l.13.36.25.71,0,.12a.87.87,0,0,1-.43.06c-.26,0-.39,0-.39.1v.13c0,.06.07.08.2.08h2.11q.21,0,.21-.06v-.13Zm-2.23-1.69H18c.28-.72.5-1.3.67-1.7Z"/><path class="cls-1" d="M27.67,81.5s0-.06-.09-.07H26.16c-.06,0-.1,0-.1.06v.13s.07.08.21.08h.29c.1,0,.15,0,.17,0a1.56,1.56,0,0,1,0,.32v2.85l-2.53-3.49H22.85c-.09,0-.14,0-.14.07v.13q0,.09.27.09a.54.54,0,0,1,.51.22,2.87,2.87,0,0,1,.09,1v2.85a2,2,0,0,1,0,.31s-.09.08-.27.09l-.13,0h-.1c-.14,0-.2,0-.2.07v.13s.05.08.17.08a3.15,3.15,0,0,0,.44,0H24l.36,0c.15,0,.23,0,.23-.08v-.13s0-.07-.13-.07h0a1.82,1.82,0,0,1-.41,0q-.12,0-.12-.42V82.45c.94,1.31,1.59,2.2,1.95,2.68l.11.16a2.91,2.91,0,0,1,.24.32c.43.6.68.9.76.9s.09,0,.1-.06,0-.2,0-.45V82a1.65,1.65,0,0,1,0-.29.12.12,0,0,1,.12,0h.27c.15,0,.23,0,.23-.07V81.5Z"/><path class="cls-1" d="M39.77,86.23c0-.06-.1-.09-.28-.1a1.46,1.46,0,0,1-.55-.08.49.49,0,0,1-.22-.3L36.8,80.52c-.33-.89-.54-1.47-.64-1.75,0,0,0-.07,0-.07s-.06,0-.09.12l0,.2a1.37,1.37,0,0,0-.1.28q-.87,2.4-2.25,6.37a.67.67,0,0,1-.23.35,1.13,1.13,0,0,1-.49.1c-.23,0-.34,0-.34.11v.12c0,.07,0,.1.15.1a.39.39,0,0,0,.14,0,1.84,1.84,0,0,1,.33,0h.34c.43,0,.81,0,1.14,0s.28,0,.28-.1v-.13c0-.07-.1-.1-.31-.11l-.54,0A.18.18,0,0,1,34,86,15.6,15.6,0,0,1,34.62,84h2.29c.25.76.41,1.25.47,1.47l.06.15.09.28h0a1.91,1.91,0,0,1-.93.14c-.19,0-.29,0-.29.12v.13c0,.08.07.11.22.11h.16l1.36,0,1.36,0h.2c.1,0,.16,0,.16-.09v-.13Zm-4-5.52.51,1.49c.24.65.41,1.14.53,1.46H34.72c.4-1.2.75-2.19,1-3"/><path class="cls-1" d="M45.74,81.5s0-.06-.1-.07H44.23c-.07,0-.11,0-.11.06v.13s.07.08.21.08h.29c.1,0,.16,0,.17,0a1.56,1.56,0,0,1,0,.32v2.85l-2.53-3.49H40.92c-.1,0-.14,0-.14.07v.13q0,.09.27.09a.52.52,0,0,1,.5.22,2.76,2.76,0,0,1,.1,1v2.85c0,.17,0,.28,0,.31s-.1.08-.27.09l-.14,0h-.1c-.14,0-.2,0-.2.07v.13s0,.08.17.08a3,3,0,0,0,.44,0H42l.36,0c.15,0,.23,0,.23-.08v-.13s0-.07-.12-.07h0a1.82,1.82,0,0,1-.41,0c-.08,0-.11-.15-.11-.42V82.45c.93,1.31,1.58,2.2,1.94,2.68l.12.16c.1.13.18.24.23.32.43.6.69.9.76.9s.09,0,.1-.06a4.16,4.16,0,0,0,0-.45V82a1.26,1.26,0,0,1,0-.29s.05,0,.11,0h.27c.16,0,.23,0,.23-.07V81.5Z"/><path class="cls-1" d="M51.8,82.6l0-.19,0-.44,0-.38v-.22l-.22,0c-.68,0-1.13,0-1.36,0h-2.5c-.06.6-.09,1-.09,1.21v.13q0,.24.09.24c.07,0,.12-.08.14-.24a1.28,1.28,0,0,1,.34-.86,2,2,0,0,1,1.09-.16v3.72c0,.31,0,.49,0,.55a.12.12,0,0,1-.1.11.35.35,0,0,1-.17,0c-.24,0-.35,0-.35.09v.13s.07.07.21.07h1.75c.12,0,.18,0,.18-.07v-.13s-.1-.08-.31-.09-.31-.08-.31-.21V81.74h.33c.49,0,.8.13.94.38a1.66,1.66,0,0,1,.18.69c0,.13.06.2.15.2s.13,0,.13-.15a.32.32,0,0,0,0-.08.07.07,0,0,0,0,0,.68.68,0,0,0,0-.12"/><path class="cls-1" d="M57.87,82.08a2.22,2.22,0,0,0-1.69-.73,2.34,2.34,0,0,0-1.75.7,2.47,2.47,0,0,0-.68,1.8V84a2.44,2.44,0,0,0,.72,1.79,2.34,2.34,0,0,0,1.75.74,2.15,2.15,0,0,0,1.65-.73A2.49,2.49,0,0,0,58.55,84v-.13a2.57,2.57,0,0,0-.68-1.81m-1.65,4.15a1.21,1.21,0,0,1-1.07-.62A3.19,3.19,0,0,1,54.76,84,4.09,4.09,0,0,1,55,82.49a1.18,1.18,0,0,1,1.14-.85,1,1,0,0,1,.89.46,3.3,3.3,0,0,1,.5,1.9c0,1.49-.46,2.23-1.32,2.23"/><path class="cls-1" d="M65.31,81.5s0-.06-.1-.07H63.8c-.06,0-.1,0-.1.06v.13s.07.08.21.08h.28c.1,0,.16,0,.18,0a1.56,1.56,0,0,1,0,.32v2.85l-2.54-3.49H60.49c-.09,0-.14,0-.14.07v.13q0,.09.27.09a.54.54,0,0,1,.51.22,2.87,2.87,0,0,1,.09,1v2.85a2,2,0,0,1,0,.31s-.1.08-.27.09l-.14,0h-.09c-.14,0-.21,0-.21.07v.13s.06.08.17.08a2.94,2.94,0,0,0,.44,0h.51l.35,0c.16,0,.24,0,.24-.08v-.13s-.05-.07-.13-.07h0a2,2,0,0,1-.42,0c-.07,0-.11-.15-.11-.42V82.45c.94,1.31,1.58,2.2,1.94,2.68a1,1,0,0,1,.12.16,1.83,1.83,0,0,1,.23.32c.43.6.69.9.77.9s.09,0,.09-.06a4.16,4.16,0,0,0,0-.45V82a1.26,1.26,0,0,1,0-.29s0,0,.11,0h.27c.16,0,.24,0,.24-.07V81.5Z"/><path class="cls-1" d="M69.29,86.24s0-.07-.13-.08a1.62,1.62,0,0,1-.38,0A.14.14,0,0,1,68.7,86V82.05a.77.77,0,0,1,0-.29.27.27,0,0,1,.19-.05c.24,0,.36,0,.36-.07v-.13c0-.06-.06-.09-.17-.09H67.34c-.1,0-.14,0-.14.08v.12s0,.08.09.08h.33c.09,0,.14,0,.16.08a3.63,3.63,0,0,1,0,.49v3.35a3.13,3.13,0,0,1,0,.47s-.12.06-.33.07-.24,0-.24.09v.13s.06.05.18.05h1.8c.07,0,.1,0,.1-.06v-.13Z"/><path class="cls-1" d="M75.47,82.08a2.22,2.22,0,0,0-1.69-.73,2.3,2.3,0,0,0-1.74.7,2.43,2.43,0,0,0-.69,1.8s0,0,0,.06,0,0,0,.07a2.44,2.44,0,0,0,.72,1.79,2.34,2.34,0,0,0,1.75.74,2.15,2.15,0,0,0,1.65-.73A2.49,2.49,0,0,0,76.15,84v-.13a2.57,2.57,0,0,0-.68-1.81m-1.65,4.15a1.19,1.19,0,0,1-1.07-.62A3.19,3.19,0,0,1,72.36,84a4.09,4.09,0,0,1,.25-1.47,1.18,1.18,0,0,1,1.14-.85,1,1,0,0,1,.89.46,3.3,3.3,0,0,1,.5,1.9c0,1.49-.45,2.23-1.32,2.23"/><path class="cls-1" d="M86.26,82.43a2.1,2.1,0,0,0-1.15-.84,8.24,8.24,0,0,0-2-.17H81.91c-.12,0-.19,0-.19.09v.13s.07.07.19.07.34,0,.38.08a3.59,3.59,0,0,1,0,.54v3.3a1.85,1.85,0,0,1,0,.37q0,.14-.24.12h-.24c-.09,0-.13,0-.13.08v.13c0,.07.06.1.18.1h2.08a3.06,3.06,0,0,0,1.8-.49,2.26,2.26,0,0,0,1-2v-.13a2.45,2.45,0,0,0-.44-1.43m-2.49,3.69a1.48,1.48,0,0,1-.47,0q-.09,0-.09-.24V82.18a.71.71,0,0,1,.06-.39,1.45,1.45,0,0,1,.6-.06q1.77,0,1.8,2.16c0,1.49-.65,2.23-1.9,2.23"/><path class="cls-1" d="M92.7,84.85c-.07,0-.11.06-.12.17,0,.6-.22,1-.5,1a11.56,11.56,0,0,1-1.85.08V83.94h.26a1.7,1.7,0,0,1,.84.12q.15.1.21.69c0,.18.07.27.13.27s.1-.06.1-.18v-.27a7.75,7.75,0,0,1,0-.84c0-.09,0-.22,0-.39s0-.31,0-.4,0,0,0,0,0-.08,0-.11,0-.21-.11-.21-.11.1-.13.3a1,1,0,0,1-.21.62,2,2,0,0,1-.84.11h-.26V81.75h.55a4.77,4.77,0,0,1,1.11.08c.27.09.46.41.56,1,0,.15.08.22.14.22s.08,0,.08-.14,0,0,0-.07a.35.35,0,0,0,0-.06s0-.09,0-.12l-.09-1v-.23H88.89c-.1,0-.14,0-.14.09v.13s0,.07.13.07a1.31,1.31,0,0,1,.37,0s.08.17.08.46v3.57c0,.2,0,.31-.06.35a1,1,0,0,1-.4,0c-.09,0-.13,0-.13.1v.13c0,.06.07.09.22.09l2.05,0,1.8,0a1.87,1.87,0,0,1,0-.35v-.49a1.8,1.8,0,0,1,0-.22c0-.09,0-.13,0-.14s0-.06,0-.09a.1.1,0,0,0,0,0c0-.2,0-.3-.11-.3"/><path class="cls-1" d="M104.91,86.23c0-.06-.09-.09-.28-.1a1.46,1.46,0,0,1-.55-.08.49.49,0,0,1-.22-.3l-1.92-5.23c-.33-.89-.54-1.47-.64-1.75,0,0,0-.07,0-.07s-.06,0-.08.12l0,.2a1.37,1.37,0,0,0-.1.28q-.87,2.4-2.25,6.37a.74.74,0,0,1-.23.35,1.13,1.13,0,0,1-.49.1c-.23,0-.34,0-.34.11v.12c0,.07.05.1.15.1a.42.42,0,0,0,.14,0,1.84,1.84,0,0,1,.33,0h.34c.43,0,.81,0,1.14,0s.28,0,.28-.1v-.13c0-.07-.1-.1-.31-.11l-.54,0a.18.18,0,0,1-.12-.12A15.6,15.6,0,0,1,99.76,84h2.29c.25.76.41,1.25.47,1.47l.06.15.09.28h0a1.91,1.91,0,0,1-.93.14c-.19,0-.28,0-.28.12v.13c0,.08.07.11.21.11h.16l1.36,0,1.37,0h.19c.11,0,.16,0,.16-.09v-.13Zm-4-5.52.52,1.49c.23.65.41,1.14.53,1.46H99.86c.41-1.2.75-2.19,1-3"/><path class="cls-1" d="M110.44,85.81c-.15,0-.22.07-.22.2l0,0a.19.19,0,0,0,0,.08.17.17,0,0,0,0,0h0c-.22,0-.35-.22-.39-.67a2.41,2.41,0,0,0-.44-1.34,1.54,1.54,0,0,0-.79-.4,2.13,2.13,0,0,0,.85-.32,1,1,0,0,0,.46-.85v-.13a.91.91,0,0,0-.43-.78,2.1,2.1,0,0,0-1.16-.29h-2c-.09,0-.15,0-.15.08v.13c0,.05.09.08.26.08a.65.65,0,0,1,.31,0,.18.18,0,0,1,.06.16V86c0,.1-.12.15-.37.15h-.15c-.07,0-.1,0-.1.08v.13s.1.07.3.07h1.72c.1,0,.15,0,.15-.07v-.13s0-.08-.11-.08q-.57,0-.54-.15V83.93a1.49,1.49,0,0,1,.83.21.86.86,0,0,1,.29.64,8,8,0,0,0,.13.9,1.1,1.1,0,0,0,.22.39,1.16,1.16,0,0,0,.93.44c.4,0,.6-.11.6-.34V86a.2.2,0,0,0-.23-.23m-2.71-4a.59.59,0,0,1,.3,0,.83.83,0,0,1,.94.89c0,.67-.45,1-1.3,1V82c0-.12,0-.2.06-.23"/><path class="cls-1" d="M116.33,84.85c-.07,0-.11.06-.12.17,0,.6-.22,1-.5,1a11.56,11.56,0,0,1-1.85.08V83.94h.27a1.68,1.68,0,0,1,.83.12q.15.1.21.69c0,.18.07.27.13.27s.11-.06.11-.18,0,0,0-.08,0,0,0,0,0-.09,0-.15,0-.44,0-.84c0-.09,0-.22,0-.39s0-.31,0-.4v-.13c0-.14,0-.21-.11-.21s-.11.1-.13.3a.92.92,0,0,1-.21.62,2,2,0,0,1-.84.11h-.26V81.75h.55a4.77,4.77,0,0,1,1.11.08c.27.09.46.41.56,1,0,.15.08.22.14.22s.08,0,.08-.14,0,0,0-.07,0,0,0-.06,0-.09,0-.13l-.09-.95v-.23h-3.67c-.09,0-.14,0-.14.09v.13s0,.07.13.07a1.31,1.31,0,0,1,.37,0c.05,0,.08.17.08.46v3.57c0,.2,0,.31-.06.35a1,1,0,0,1-.4,0c-.09,0-.13,0-.13.1v.13c0,.06.07.09.23.09l2.05,0,1.79,0a1.87,1.87,0,0,1,0-.35v-.49a1.8,1.8,0,0,1,0-.22c0-.09,0-.13,0-.14s0-.06,0-.09v0c0-.2,0-.3-.11-.3"/><path class="cls-1" d="M122.58,84.5c-.06,0-.11.09-.14.28a1.91,1.91,0,0,1-.49,1,1.26,1.26,0,0,1-.93.37,1.33,1.33,0,0,1-1.16-.62,3,3,0,0,1-.43-1.65,3.16,3.16,0,0,1,.39-1.63,1.26,1.26,0,0,1,2.16,0,2.75,2.75,0,0,1,.26.86c0,.1.06.16.12.16s.11-.15.12-.45a8.69,8.69,0,0,1,.07-1.09l0-.09v-.13c0-.06,0-.09-.08-.09s-.13.08-.18.24-.06.14-.1.14a.14.14,0,0,1-.09,0,2.13,2.13,0,0,0-1.35-.42,2.23,2.23,0,0,0-1.69.71,2.45,2.45,0,0,0-.67,1.79V84a2.45,2.45,0,0,0,.72,1.81,2.41,2.41,0,0,0,1.8.73,1.79,1.79,0,0,0,1.33-.48l0,.07.09.2q.09.18.18.18s.08,0,.08-.1v-.21a3.74,3.74,0,0,1,0-.41c0-.16,0-.41,0-.74a1.88,1.88,0,0,0,0-.19V84.7c0-.13,0-.2-.1-.2"/><path class="cls-1" d="M129.63,83.89a2.54,2.54,0,0,0-.69-1.81,2.19,2.19,0,0,0-1.69-.73,2.31,2.31,0,0,0-1.74.7,2.5,2.5,0,0,0-.68,1.8V84a2.51,2.51,0,0,0,.71,1.8,2.35,2.35,0,0,0,1.76.73,2.18,2.18,0,0,0,1.65-.72,2.51,2.51,0,0,0,.68-1.77s0,0,0-.06,0,0,0-.07m-2.33,2.34a1.19,1.19,0,0,1-1.07-.62,3.19,3.19,0,0,1-.39-1.65,4.09,4.09,0,0,1,.25-1.47,1.17,1.17,0,0,1,1.13-.85,1,1,0,0,1,.89.46,3.3,3.3,0,0,1,.51,1.9c0,1.49-.46,2.23-1.32,2.23"/><path class="cls-1" d="M13,69.5c0,.06,0,.42-.05,1.08s0,1.29,0,1.89v.72q-2.14-.14-8.51-.13H1.64c-.27,0-.41-.06-.41-.18s0-.12.13-.14l.83-.06q.57,0,.69-.24a2.55,2.55,0,0,0,.12-1V59c0-.42-.06-.68-.18-.76a3.23,3.23,0,0,0-1.2-.12c-.23,0-.35-.06-.35-.18s.16-.19.48-.19h9.31a7.42,7.42,0,0,0,1.2-.09c0,.63.1,1.5.2,2.61l.09.95a1.91,1.91,0,0,1,0,.28c0,.15-.07.22-.2.22s-.28-.18-.35-.55a3.57,3.57,0,0,0-1.36-2.52A10,10,0,0,0,7,58.29H5.18v6.45H5.7a6.9,6.9,0,0,0,3-.37c.36-.25.6-1,.73-2.17,0-.31.11-.46.24-.46s.25.13.25.39,0,.65-.05,1.16,0,.9,0,1.17c0,1.56,0,2.64.07,3.22,0,.15,0,.27,0,.37s-.08.29-.24.29-.17-.06-.21-.19a11.68,11.68,0,0,1-.19-1.22,1.74,1.74,0,0,0-1.07-1.6,9.56,9.56,0,0,0-2.05-.13h-1v7.35a42.91,42.91,0,0,0,5.66-.19c1-.22,1.51-1.14,1.64-2.78,0-.36.13-.54.29-.54s.22.16.22.46"/><path class="cls-1" d="M25.4,71.06c0,.82,0,1.51,0,2.06a1.62,1.62,0,0,1-.33,0l-.34,0c-.21,0-.49,0-.82,0h-1l-3.76,0H17.29c-.2,0-.29-.05-.29-.15s.29-.14.86-.18c.16,0,.26-.06.29-.11a1.14,1.14,0,0,0,.06-.49V64.75c0-.82-.07-1.26-.2-1.3a1.06,1.06,0,0,0-.38,0,2.75,2.75,0,0,1-.39,0q-.24,0-.24-.18c0-.1.09-.15.29-.15h3.55q.42,0,.42.18c0,.08-.24.13-.73.15-.23,0-.37.06-.41.15a3.13,3.13,0,0,0-.07.94v8.16c.58,0,1,0,1.27,0a5.67,5.67,0,0,0,2.94-.46,2.25,2.25,0,0,0,.61-1.58c0-.35.11-.52.25-.52s.28.32.28,1"/><path class="cls-1" d="M48.33,61.72c0,.19-.09.28-.27.28s-.3-.19-.37-.57l-.09-.79a3.86,3.86,0,0,0-.5-1.34,2.16,2.16,0,0,0-1.51-.92,4.93,4.93,0,0,0-1.1-.11l-1.25,0V71.57c0,.52.14.85.42,1a3.79,3.79,0,0,0,1.22.14q.27,0,.27.18c0,.13-.12.19-.35.19l-.31,0L42.62,73c-.48,0-.93,0-1.36,0s-1,0-1.62,0c-.34,0-.5-.06-.5-.18s.31-.2.94-.22c.45,0,.75-.09.88-.28a2.25,2.25,0,0,0,.11-.9V58.32a10.21,10.21,0,0,0-2.7.22c-.92.33-1.46,1.23-1.63,2.69q-.06.66-.3.66c-.18,0-.27-.15-.27-.46,0-.16,0-.32,0-.48l.05-.5c0-.68.11-1.56.2-2.66h1l4.48.07h2.46L48,57.79c0,.82.12,2,.28,3.64a1.28,1.28,0,0,0,0,.17.49.49,0,0,1,0,.12"/><path class="cls-1" d="M61.42,72.49c0,.47-.4.7-1.22.7a2.36,2.36,0,0,1-1.92-.9,2.06,2.06,0,0,1-.44-.78,15.79,15.79,0,0,1-.26-1.86,1.88,1.88,0,0,0-.6-1.31,3.1,3.1,0,0,0-1.7-.42v4.52c0,.21.32.31,1.1.31q.24,0,.24.15c0,.11-.1.16-.31.16H52.78c-.41,0-.61,0-.61-.15s.07-.16.22-.16h.3c.5,0,.75-.1.75-.31V63.78a.36.36,0,0,0-.12-.32,1.53,1.53,0,0,0-.64-.08c-.34,0-.51-.06-.51-.17s.1-.16.3-.16h4.15a4.15,4.15,0,0,1,2.36.6,1.84,1.84,0,0,1,.89,1.59A2,2,0,0,1,58.93,67a5.08,5.08,0,0,1-2.66.78,3.91,3.91,0,0,1,2.53,1,4.91,4.91,0,0,1,.89,2.75q.14,1.35.81,1.35c.08,0,.11,0,.11-.06a.44.44,0,0,0,0-.14.46.46,0,0,1-.06-.18c0-.27.15-.4.44-.4s.48.15.48.46M58,65.39a1.72,1.72,0,0,0-1.94-2,1.14,1.14,0,0,0-.62.1c-.08.06-.12.22-.12.46v3.58c1.79,0,2.68-.72,2.68-2.18"/><path class="cls-1" d="M74.83,68.11a5.08,5.08,0,0,1-1.38,3.6,4.49,4.49,0,0,1-3.38,1.48,4.81,4.81,0,0,1-3.59-1.5,5.45,5.45,0,0,1-.06-7.36A4.75,4.75,0,0,1,70,62.9a4.53,4.53,0,0,1,3.46,1.5,5.29,5.29,0,0,1,1.39,3.71m-2.06.07a6.92,6.92,0,0,0-1-4,2.11,2.11,0,0,0-1.83-.94A2.43,2.43,0,0,0,67.59,65a8.17,8.17,0,0,0-.5,3.11,6.6,6.6,0,0,0,.79,3.52,2.43,2.43,0,0,0,2.19,1.27q2.7,0,2.7-4.7"/><path class="cls-1" d="M86.65,65.47a2.32,2.32,0,0,1-1,1.94,4.18,4.18,0,0,1-2.58.73q-.24,0-.87-.06h-.13v4c0,.39.1.61.29.65a5.71,5.71,0,0,0,.83,0c.16,0,.24,0,.24.16s-.08.11-.25.13-.75,0-1.75,0c-1.24,0-2,0-2.17,0S79,73,79,72.89s.06-.15.18-.14h.33l.59-.06a.16.16,0,0,0,.13-.07,2.71,2.71,0,0,0,0-.75V64.52a6.47,6.47,0,0,0,0-.94c0-.13-.28-.2-.71-.2h-.29c-.16,0-.25-.06-.25-.17s.09-.12.25-.13.71,0,1.65,0a31,31,0,0,1,3.45.11c1.56.27,2.33,1,2.33,2.31m-1.9,0q0-2.1-1.86-2.1a1.49,1.49,0,0,0-.67.09c-.09.06-.13.23-.13.51v3.79c1.77,0,2.66-.76,2.66-2.29"/><path class="cls-1" d="M98.94,70.68s0,.1,0,.28a3.91,3.91,0,0,0,0,.45v1.28a1.42,1.42,0,0,0,.07.43l-3.66-.06-4.19.06c-.31,0-.47-.05-.47-.17s.09-.2.27-.2a1.78,1.78,0,0,0,.82-.1c.08-.06.12-.3.12-.71V64.39c0-.6,0-.92-.15-1a2.9,2.9,0,0,0-.77-.06c-.18,0-.26-.05-.26-.15s.09-.18.28-.18h7.5v.15l0,.33c0,.21.08.86.17,1.94a1.84,1.84,0,0,1,0,.26c0,.19-.05.28-.15.28s-.23-.14-.28-.43c-.21-1.12-.59-1.77-1.16-2a10.13,10.13,0,0,0-2.27-.15H93.67v4.1h.53a3.63,3.63,0,0,0,1.71-.23c.22-.15.37-.57.44-1.26,0-.41.13-.61.26-.61s.22.14.22.44,0,.44,0,.81,0,.64,0,.83c0,1,0,1.6,0,2,0,.12,0,.22,0,.29,0,.23-.07.35-.21.35s-.22-.18-.26-.55c-.09-.79-.23-1.26-.44-1.41a3.52,3.52,0,0,0-1.7-.23h-.55v4.73a24.87,24.87,0,0,0,3.78-.17c.58-.16.92-.86,1-2.11q0-.33.24-.33c.14,0,.22.21.22.61"/><path class="cls-1" d="M110.83,69.7a6.1,6.1,0,0,0-.13.83l-.14.92q0,.31-.15.93c0,.26-.08.49-.11.68h-4.65l-1.6,0-.57,0h-.24c-.22,0-.33,0-.33-.13a.37.37,0,0,1,.06-.15l.09-.15q.9-1.59,3.62-6.28c.76-1.29,1.31-2.26,1.65-2.92a12.8,12.8,0,0,0-1.38-.06c-1.38,0-2.21.26-2.48.79a6.23,6.23,0,0,0-.55,1.88c0,.24-.14.36-.29.36s-.22-.08-.22-.25a1.38,1.38,0,0,1,0-.22l.11-.72c0-.29.09-.54.13-.74l.14-.62A8.84,8.84,0,0,1,104,63c.84,0,1.79.07,2.83.07s1.89,0,2.3,0l.61,0h.62A18.75,18.75,0,0,1,109,65.71l-3.6,6.18c-.08.17-.22.42-.41.75.76,0,1.35,0,1.78,0a4.33,4.33,0,0,0,2.58-.53,4.2,4.2,0,0,0,1-2.41c0-.19.13-.29.29-.29s.22.08.22.24"/><path class="cls-1" d="M124.78,68.11a5.06,5.06,0,0,1-1.38,3.6A4.44,4.44,0,0,1,120,73.19a4.82,4.82,0,0,1-3.59-1.5,5.45,5.45,0,0,1-.06-7.36,4.76,4.76,0,0,1,3.56-1.43,4.53,4.53,0,0,1,3.46,1.5,5.24,5.24,0,0,1,1.39,3.71m-2.06.07a6.94,6.94,0,0,0-1-4,2.1,2.1,0,0,0-1.82-.94A2.43,2.43,0,0,0,117.54,65a8.37,8.37,0,0,0-.5,3.11,6.6,6.6,0,0,0,.79,3.52A2.45,2.45,0,0,0,120,72.88q2.7,0,2.7-4.7m.09-9.78-2,2.1c-.88.93-1.39,1.39-1.54,1.39s-.13,0-.13-.11l0-.13.13-.31c.11-.29.31-.76.59-1.4l.7-1.54h2.2Z"/><path class="cls-1" d="M138.6,63.21q0,.15-.48.15h-.55c-.13,0-.21,0-.23.09a3.06,3.06,0,0,0,0,.59v8.09c0,.53,0,.84,0,.93s-.08.13-.2.13-.68-.61-1.56-1.84q-.15-.24-.48-.66l-.24-.33c-.73-1-2.06-2.79-4-5.47v7c0,.54.07.83.23.86a5.28,5.28,0,0,0,.84,0H132c.17,0,.26,0,.26.14s-.16.17-.48.17l-.72,0-.6,0L130,73a8.08,8.08,0,0,1-.89,0c-.24,0-.36-.06-.36-.17s.14-.14.42-.14h.2l.28,0c.35,0,.54-.1.55-.2a4,4,0,0,0,0-.64V65.81a5.57,5.57,0,0,0-.19-2,1.1,1.1,0,0,0-1-.45c-.37,0-.55-.06-.55-.18s.09-.15.28-.15h2.79l5.17,7.13V64.09a2.43,2.43,0,0,0,0-.64c0-.06-.14-.09-.35-.09h-.59c-.28,0-.42,0-.42-.16s.07-.11.21-.13.63,0,1.48,0,1.27,0,1.4,0,.2.06.2.14"/><path class="cls-1" d="M20.38,52.29H1.87V20.15H20.38ZM2.56,51.6H19.68V20.85H2.56Z"/><path class="cls-1" d="M20.38,18.72H1.87V4.23H20.38ZM2.56,18H19.68V4.93H2.56Z"/><path class="cls-1" d="M21.37,4.93H.88V2.12H21.37ZM1.58,4.23H20.67V2.81H1.58Z"/><path class="cls-1" d="M21.37,20.85H.88V18H21.37Zm-19.79-.7H20.67V18.72H1.58Z"/><path class="cls-1" d="M22.26,2.81H0V0H22.26ZM.7,2.11H21.56V.7H.7Z"/><path class="cls-1" d="M138,52.29H119.45V20.15H138Zm-17.82-.69h17.13V20.85H120.14Z"/><path class="cls-1" d="M138,18.72H119.45V4.23H138ZM120.14,18h17.13V4.93H120.14Z"/><path class="cls-1" d="M139,4.93H118.46V2.12H139Zm-19.79-.7h19.09V2.81H119.16Z"/><path class="cls-1" d="M139,20.85H118.46V18H139Zm-19.79-.7h19.09V18.72H119.16Z"/><path class="cls-1" d="M139.83,2.81H117.58V0h22.25Zm-21.56-.69h20.87V.7H118.27Z"/><path class="cls-1" d="M69.58,52.32H66.77v-1H19.66V33.09H66.77V32h2.81Zm-2.11-.69h1.42V32.72H67.47v1.06H20.36V50.67H67.47Zm0-2.24H45.23V35H67.47Zm-21.54-.7H66.77v-13H45.93Zm-1.91.7H21.78V35H44Zm-21.54-.7H43.32v-13H22.48Z"/><path class="cls-1" d="M94.56,49.39H92.47l-9-5.68-9.31,5.68h-1.8v-2l8.57-5.28-8.57-5.36V35h2.23l8.87,5.6L92.65,35h1.91v2L86,42.16l8.58,5.37v1.86Zm-1.89-.7h1.2v-.78l-9.21-5.76,9.21-5.61v-.89h-1l-9.41,5.73-9.07-5.73H73v.72l9.2,5.75L73,47.78v.91h.92l9.51-5.79Z"/><path class="cls-1" d="M118,49.45h-2.09l-9-5.68-9.31,5.68h-1.8v-2l8.57-5.28-8.57-5.36V35H98l8.88,5.6L116.1,35H118v2l-8.58,5.23L118,47.59v1.86Zm-1.89-.7h1.19V48l-9.2-5.75,9.2-5.62v-.88h-1l-9.41,5.72-9.07-5.72H96.47v.72l9.2,5.74-9.2,5.67v.9h.92L106.9,43Z"/><path class="cls-1" d="M44,49.39H41.93l-9-5.68-9.31,5.68H21.78v-2l8.57-5.28-8.57-5.36V35H24l8.87,5.6L42.11,35H44v2l-8.58,5.23L44,47.53v1.86Zm-1.89-.7h1.19v-.78l-9.2-5.76,9.2-5.61v-.89h-1l-9.41,5.73-9.07-5.73H22.48v.72l9.2,5.75-9.2,5.66v.91h.91L32.9,42.9Z"/><path class="cls-1" d="M67.47,49.39H65.38l-9-5.68L47,49.39h-1.8v-2l8.57-5.28-8.57-5.36V35h2.23l8.88,5.6L65.56,35h1.91v2l-8.58,5.23,8.58,5.37v1.86Zm-1.9-.7h1.2v-.78l-9.2-5.76,9.2-5.61v-.89h-1l-9.41,5.73-9.07-5.73H45.93v.72l9.2,5.75-9.2,5.66v.91h.91l9.51-5.79Z"/><path class="cls-1" d="M73,52.32H70.21V32H73v1.07h47.11V51.37H73Zm-2.11-.69h1.42v-1h47.11V33.78H72.33V32.72H70.91Z"/><line class="cls-1" x1="20.03" y1="12.84" x2="63.46" y2="33.44"/><rect class="cls-1" x="41.4" y="-0.9" width="0.7" height="48.06" transform="translate(2.95 50.94) rotate(-64.63)"/><line class="cls-1" x1="119.77" y1="12.84" x2="77.01" y2="33.44"/><rect class="cls-1" x="74.66" y="22.79" width="47.46" height="0.7" transform="translate(-0.31 44.89) rotate(-25.67)"/><path class="cls-1" d="M94.56,49.39H72.33V35H94.56ZM73,48.69H93.87v-13H73Z"/><path class="cls-1" d="M118,49.45H95.78V35H118V49.45Zm-21.54-.7h20.85v-13H96.47Z"/></svg>